<svg width="335" height="99" viewBox="0 0 335 99" fill="none" xmlns="http://www.w3.org/2000/svg">
<mask id="mask0_0_1107" style="mask-type:alpha" maskUnits="userSpaceOnUse" x="0" y="0" width="335" height="99">
<path d="M197 54.9998C223 62.9998 231.833 87.3332 233 98.4998H335V0H0.5V98H115.5C125 65.5 144.5 59 150.5 58C155.3 57.2 160.5 54.9999 162.5 53.9998C167.667 52.6665 181.8 50.9998 197 54.9998Z" fill="#D9D9D9"/>
</mask>
<g mask="url(#mask0_0_1107)">
<path d="M326 70.7425V3.09877H305.293V70.7425H326ZM326 96V76.9843H305.293V96H326Z" fill="#B0E31B"/>
<path d="M50.399 96H46.1019C45.9334 96 45.8491 95.916 45.8491 95.748L45.3436 96C45.1751 96 45.0908 95.916 45.0908 95.748L44.5853 96H42.3103C41.8048 96 41.552 95.916 41.552 95.748L40.2882 96H34.98C34.8115 96 34.7272 95.916 34.7272 95.748L34.2217 96L33.4633 95.496C33.4633 95.832 33.2106 96 32.705 96V94.992L31.4412 96H26.6385C26.47 96 26.3858 95.916 26.3858 95.748L25.8802 96C23.3525 96 21.4146 95.832 20.0665 95.496L19.8137 96C17.6652 95.79 16.4856 95.622 16.2749 95.496C16.2749 95.832 16.1064 96 15.7694 96H14.5055C14.1685 96 14 95.832 14 95.496C14 85.2055 14.0843 77.5612 14.2528 72.563C14.2528 72.395 14.1685 72.143 14 71.807C14.1685 69.6229 14.2528 67.8588 14.2528 66.5147V45.3458C14.2528 45.1778 14.337 45.0938 14.5055 45.0938L14.2528 44.5898V23.6729C14.2528 23.2949 14.337 22.9589 14.5055 22.6649C14.1685 22.1189 14 21.3628 14 20.3968C14 20.2288 14.0843 20.1448 14.2528 20.1448L14 19.6408C14 19.2627 14.0843 18.9267 14.2528 18.6327C14.0843 18.3387 14 17.9187 14 17.3727L14.5055 16.6166C14.1685 16.6166 14 16.4486 14 16.1126L14.2528 10.5684C14.0843 10.2323 14 9.98034 14 9.81233H14.2528C14.0843 9.47632 14 9.1403 14 8.80429C14.337 8.80429 14.5055 8.72029 14.5055 8.55228V7.79625H14.7583V7.54424C14.337 7.54424 14.0843 7.20822 14 6.53619L14.5055 6.28418V6.7882H14.7583V6.28418L14 5.78016C14 3.59607 14.4213 2.50402 15.2639 2.50402C16.1486 2.50402 16.9069 2.42002 17.5388 2.25201C17.5388 2.50402 17.7916 2.75603 18.2971 3.00804L18.5499 2.50402C19.0975 2.84004 19.6031 3.00804 20.0665 3.00804H24.8691V3.26005L24.6164 3.76408L25.1219 4.01609C24.7849 4.56211 24.6164 4.98213 24.6164 5.27614L25.1219 5.52815C25.2062 3.84808 25.4589 3.00804 25.8802 3.00804C26.3858 3.00804 26.6385 3.26005 26.6385 3.76408H27.3968L26.8913 3.00804C27.0598 3.00804 27.1441 2.92404 27.1441 2.75603L28.4079 3.00804H31.1884V3.51206H31.694V3.00804H38.0132L38.5188 3.26005C38.5188 3.09205 38.603 3.00804 38.7715 3.00804C39.1086 3.55407 39.2771 3.97408 39.2771 4.2681H39.5298V4.01609C39.3613 3.68007 39.2771 3.42806 39.2771 3.26005L39.7826 3.00804H44.0797C44.4167 3.05004 44.5853 3.21805 44.5853 3.51206L44.3325 4.01609C44.5853 4.68811 44.838 5.02413 45.0908 5.02413C45.0908 4.85612 45.1751 4.77212 45.3436 4.77212L45.8491 5.52815C45.8491 5.90617 45.7649 6.24218 45.5963 6.53619V6.7882H45.8491C45.8491 6.45219 46.0176 6.28418 46.3547 6.28418C46.3547 5.36014 45.8491 4.60411 44.838 4.01609C45.0065 3.68007 45.0908 3.42806 45.0908 3.26005C44.9223 3.26005 44.838 3.17605 44.838 3.00804C45.0065 3.00804 45.0908 2.92404 45.0908 2.75603C45.5963 2.92404 45.8491 3.09205 45.8491 3.26005L46.3547 3.00804H47.6185C49.4722 3.63807 50.399 4.14209 50.399 4.52011L50.9045 4.2681C52.2105 5.02413 53.3059 6.03217 54.1905 7.29222H53.9378C50.9888 5.10813 49.0509 4.01609 48.1241 4.01609V4.2681C49.3458 4.2681 51.1152 5.44415 53.4322 7.79625L52.6739 8.80429C52.8424 8.80429 52.9267 8.88829 52.9267 9.0563C53.2637 8.88829 53.6007 8.80429 53.9378 8.80429C53.9378 9.60232 54.1905 10.1903 54.6961 10.5684L54.4433 11.0724C55.2859 11.2404 55.7072 12.5844 55.7072 15.1046V20.6488H55.2016C55.5387 22.3289 55.7072 23.3369 55.7072 23.6729H55.4544C55.6229 24.0089 55.7072 24.345 55.7072 24.681H55.2016V25.185L55.7072 25.941H55.4544L54.6961 25.437H54.4433V25.941C55.2859 26.067 55.7072 26.7391 55.7072 27.9571C55.7072 28.5031 55.6229 28.9231 55.4544 29.2172L55.7072 31.4853C55.6229 35.8534 55.3701 38.0375 54.9489 38.0375V38.5416H55.4544V41.8177H55.2016L54.6961 41.5657V42.5737C55.2016 42.5737 55.6229 43.0777 55.9599 44.0858C56.2127 44.0858 56.5497 44.4218 56.971 45.0938C56.8025 45.7659 56.1285 46.9419 54.9489 48.622L55.4544 48.874H55.7072C56.5919 46.6899 57.1817 45.5979 57.4766 45.5979C59.8358 47.7399 61.0154 48.916 61.0154 49.126V59.2064C61.0154 59.3744 60.9311 59.4584 60.7626 59.4584L61.0154 59.9625V70.0429L60.5098 70.7989C60.8468 70.8409 61.0154 71.0089 61.0154 71.3029V75.8391L60.257 77.0992V77.3512H60.5098V76.8472H61.0154L61.2681 78.8633H61.5209C61.5209 76.6792 61.6052 75.5871 61.7737 75.5871C61.6052 75.2931 61.5209 74.5371 61.5209 73.319C61.5209 73.151 61.6052 73.067 61.7737 73.067L61.5209 72.563V72.311H62.0264V71.807C61.5209 71.807 61.2681 71.639 61.2681 71.3029V70.5469C61.3103 70.2109 61.4788 70.0429 61.7737 70.0429L61.5209 68.7828C61.5209 67.5648 61.6052 66.6407 61.7737 66.0107C61.6052 65.3387 61.5209 64.4987 61.5209 63.4906H62.2792V65.2547H62.532C62.532 62.9026 62.6162 61.3065 62.7848 60.4665H63.2903V68.2788L63.5431 69.7909L63.2903 70.2949C63.4588 70.5889 63.5431 70.9249 63.5431 71.3029H63.2903L63.5431 71.807V75.3351C63.5431 75.5031 63.4588 75.5871 63.2903 75.5871L63.5431 76.0911V79.8713C63.5431 84.1975 62.869 87.3056 61.5209 89.1957C59.6672 92.7239 57.8136 94.4879 55.9599 94.4879C55.9599 94.3199 55.8757 94.2359 55.7072 94.2359C55.7072 95.118 53.9378 95.706 50.399 96ZM17.7916 4.01609C17.7916 3.84808 17.8758 3.59607 18.0443 3.26005L17.5388 3.00804V4.01609H17.7916ZM30.4301 4.52011C30.4301 4.18409 30.5986 4.01609 30.9356 4.01609V3.51206H29.6718L29.1662 3.26005L28.9135 3.76408C29.756 3.76408 30.1773 4.01609 30.1773 4.52011H30.4301ZM32.705 4.52011V4.2681C32.4523 3.59607 32.1995 3.26005 31.9467 3.26005V3.51206C32.1995 4.18409 32.4523 4.52011 32.705 4.52011ZM42.5631 3.76408V3.26005H42.3103V3.76408H42.5631ZM46.3547 3.76408V3.51206H45.8491V3.76408H46.3547ZM47.8713 4.2681C47.8713 3.93208 47.7028 3.76408 47.3657 3.76408V4.2681H47.8713ZM23.0997 4.52011V4.01609C22.7627 4.05809 22.5942 4.22609 22.5942 4.52011H23.0997ZM17.7916 5.27614V4.77212H17.5388V5.27614H17.7916ZM39.5298 5.27614V4.77212H39.2771V5.27614H39.5298ZM41.552 5.78016V5.27614C41.215 5.31814 41.0465 5.48615 41.0465 5.78016H41.552ZM21.5831 6.03217V5.52815H21.0776V6.03217H21.5831ZM37.7605 6.03217V5.52815H37.2549C37.297 5.86416 37.4656 6.03217 37.7605 6.03217ZM48.1241 5.78016V5.52815H47.6185V5.78016H48.1241ZM47.6185 9.30831C48.1662 8.46828 48.5032 8.04826 48.6296 8.04826C48.6296 7.88025 48.5453 7.79625 48.3768 7.79625L48.6296 6.53619C48.6296 6.20018 48.4611 6.03217 48.1241 6.03217C48.1241 6.36819 47.787 6.53619 47.113 6.53619V7.04021H47.6185V7.29222H47.113C46.7759 7.12422 46.5232 7.04021 46.3547 7.04021L46.1019 7.54424C46.6074 7.54424 46.8602 7.79625 46.8602 8.30027L46.3547 8.04826C46.3547 8.55228 46.7759 8.9723 47.6185 9.30831ZM17.5388 6.7882V6.28418H17.0332C17.0754 6.6202 17.2439 6.7882 17.5388 6.7882ZM24.6164 7.54424L24.8691 6.53619L24.3636 6.28418V7.54424H24.6164ZM35.4855 6.7882V6.28418C35.1485 6.32618 34.98 6.49419 34.98 6.7882H35.4855ZM39.0243 7.29222C39.2771 7.29222 39.5298 7.04021 39.7826 6.53619V6.28418H39.5298C39.5298 6.6202 39.3613 6.7882 39.0243 6.7882V7.29222ZM16.0222 7.29222C16.0222 7.04021 15.7694 6.7882 15.2639 6.53619C15.4324 6.87221 15.5166 7.12422 15.5166 7.29222H16.0222ZM30.1773 7.04021V6.53619H29.9246V7.04021H30.1773ZM51.6628 7.04021V6.7882H51.1573V7.04021H51.6628ZM19.8137 7.29222V7.04021H19.3082V7.29222H19.8137ZM34.4744 9.56032V9.30831C33.9689 8.34227 33.7161 7.67024 33.7161 7.29222H33.4633C33.4633 7.46023 33.6319 8.21626 33.9689 9.56032H34.4744ZM44.0797 7.54424V7.29222H43.5742V7.54424H44.0797ZM19.8137 8.30027V7.79625C19.4767 7.83825 19.3082 8.00626 19.3082 8.30027H19.8137ZM43.8269 8.30027V7.79625H43.3214V8.30027H43.8269ZM45.5963 8.55228V7.79625H45.3436V8.55228H45.5963ZM56.2127 12.8365C56.2127 12.2484 55.5387 10.5684 54.1905 7.79625H54.9489C56.1285 10.3164 56.7183 11.9124 56.7183 12.5844L56.2127 12.8365ZM24.3636 8.80429V8.55228H23.8581V8.80429H24.3636ZM39.0243 9.30831C39.0243 8.80429 38.8558 8.55228 38.5188 8.55228C38.5188 9.0563 38.6873 9.30831 39.0243 9.30831ZM39.5298 9.0563V8.55228H39.2771V9.0563H39.5298ZM43.5742 9.30831C43.5742 8.80429 43.4057 8.55228 43.0686 8.55228V9.30831H43.5742ZM15.2639 9.56032C15.2639 9.0563 15.0953 8.80429 14.7583 8.80429C14.7583 9.30831 14.9268 9.56032 15.2639 9.56032ZM23.0997 9.30831V8.80429H22.847V9.30831H23.0997ZM28.9135 9.30831V8.80429H28.4079C28.4501 9.1403 28.6186 9.30831 28.9135 9.30831ZM23.6053 10.5684C23.9423 10.5684 24.1108 10.1483 24.1108 9.30831H23.8581L23.6053 10.5684ZM50.1462 9.81233V9.30831H49.8934V9.81233H50.1462ZM32.1995 11.0724C32.368 10.2324 32.4523 9.72833 32.4523 9.56032H32.1995C32.031 10.2324 31.9467 10.7364 31.9467 11.0724H32.1995ZM39.7826 10.0643C39.7826 9.72833 39.6141 9.56032 39.2771 9.56032V10.0643H39.7826ZM48.3768 11.3244L47.8713 10.5684V10.3164L48.6296 10.8204V10.5684C48.4611 10.2744 48.3768 9.93834 48.3768 9.56032H47.8713V10.0643L47.3657 9.81233H47.113L47.8713 11.3244H48.3768ZM37.5077 10.3164V9.81233H37.2549V10.3164H37.5077ZM34.7272 11.5764V10.8204C34.5587 10.4844 34.4744 10.2324 34.4744 10.0643H34.2217C34.2217 10.2324 34.3059 10.7364 34.4744 11.5764H34.7272ZM40.5409 11.8284C40.5409 11.3244 40.3724 11.0724 40.0354 11.0724H39.2771C39.2771 11.3664 39.6984 11.6184 40.5409 11.8284ZM48.8824 11.5764V11.0724H48.6296V11.5764H48.8824ZM20.572 12.0804C20.9091 11.9124 21.1618 11.8284 21.3304 11.8284V11.3244C20.9933 11.4924 20.7406 11.5764 20.572 11.5764V12.0804ZM47.6185 11.8284V11.3244H47.3657V11.8284H47.6185ZM23.0997 13.8445C23.2683 13.0045 23.3525 12.4164 23.3525 12.0804H23.0997C22.9312 12.9625 22.847 13.5505 22.847 13.8445H23.0997ZM47.6185 12.3324V12.0804H47.113V12.3324H47.6185ZM50.1462 17.1206L51.1573 15.8606L49.6407 12.3324C49.3458 12.5004 49.0088 12.5844 48.6296 12.5844C48.7981 12.9205 48.8824 13.1725 48.8824 13.3405L49.3879 13.0885H49.6407L49.8934 14.0965C49.7249 14.0965 49.6407 14.1805 49.6407 14.3485C50.0198 14.3485 50.3569 14.6845 50.6518 15.3566L50.1462 17.1206ZM40.0354 13.0885V12.5844H39.7826V13.0885H40.0354ZM46.8602 16.3646L47.113 14.8525L46.8602 14.3485C47.1972 13.6765 47.3657 13.0885 47.3657 12.5844C47.113 12.5844 46.7759 12.9205 46.3547 13.5925C46.3547 14.1385 46.4389 14.5585 46.6074 14.8525L46.1019 16.1126C46.2704 16.1126 46.5232 16.1966 46.8602 16.3646ZM52.9267 13.3405V12.5844C52.5054 12.9205 52.1684 13.0885 51.9156 13.0885V13.3405H52.9267ZM18.5499 13.8445C18.5499 13.5085 18.8026 13.3405 19.3082 13.3405V13.0885H18.8026C18.8026 13.4245 18.5499 13.5925 18.0443 13.5925V13.8445H18.5499ZM35.4855 13.8445V13.5925H34.98V13.8445H35.4855ZM41.8048 14.0965V13.5925H41.2992V14.0965H41.8048ZM56.971 14.0965H56.4655V13.5925H56.971V14.0965ZM22.847 15.1046V14.0965H22.5942V15.1046H22.847ZM17.5388 14.6005V14.3485H17.0332V14.6005H17.5388ZM34.98 14.8525V14.6005H34.4744V14.8525H34.98ZM53.1795 15.3566V14.8525H52.9267V15.3566H53.1795ZM16.5277 15.3566V15.1046H16.0222V15.3566H16.5277ZM29.6718 49.378C35.6119 43.3298 38.6451 40.3056 38.7715 40.3056L39.2771 40.5576C41.4678 38.3735 42.5631 37.1135 42.5631 36.7775L42.3103 27.7051H42.8159L43.0686 28.9651H42.8159C42.9844 29.3012 43.0686 29.6372 43.0686 29.9732L42.5631 30.7292C42.9001 30.7292 43.0686 31.4013 43.0686 32.7453H43.3214C43.3214 31.9473 43.4899 31.3592 43.8269 30.9812L43.3214 30.2252V29.9732H43.5742L44.3325 30.4772V30.2252C43.9955 28.6291 43.8269 27.2011 43.8269 25.941L44.3325 25.185V24.933H43.8269C43.8269 22.6649 43.9112 19.5567 44.0797 15.6086C43.4057 15.7766 42.7316 15.8606 42.0576 15.8606C41.7205 15.8606 41.552 15.6086 41.552 15.1046C41.0465 15.1046 40.7937 15.3566 40.7937 15.8606C39.4035 15.8606 38.5609 15.7766 38.266 15.6086C37.9711 15.7766 37.6341 15.8606 37.2549 15.8606C37.0864 15.8606 37.0021 15.7766 37.0021 15.6086C36.6651 15.7766 36.4123 15.8606 36.2438 15.8606C36.0753 15.8606 35.8225 15.7766 35.4855 15.6086L33.9689 15.8606V15.6086L33.4633 15.8606H29.6718V16.1126C30.3037 16.1126 30.8093 16.2806 31.1884 16.6166H31.4412V16.1126C33.4633 16.1546 34.4744 16.3226 34.4744 16.6166L34.98 16.3646C35.8225 16.7426 36.2438 17.1626 36.2438 17.6247C37.0864 17.2887 37.6762 17.1206 38.0132 17.1206V17.3727C38.1817 17.3727 38.266 17.2887 38.266 17.1206C38.94 17.2887 39.5298 17.3727 40.0354 17.3727V17.8767C35.7804 18.0447 32.4101 18.1287 29.9246 18.1287C29.9246 28.3771 29.8403 33.5013 29.6718 33.5013C29.6718 33.6693 29.756 33.7534 29.9246 33.7534C29.756 36.8615 29.6718 42.0697 29.6718 49.378ZM57.2238 20.3968H56.7183V19.1367C56.7183 18.9687 56.8025 18.8847 56.971 18.8847L56.7183 18.3807C56.7183 18.0447 56.8025 17.7087 56.971 17.3727C56.634 17.3727 56.4655 17.2046 56.4655 16.8686V16.1126C56.4655 15.9446 56.5497 15.8606 56.7183 15.8606L56.4655 15.3566V15.1046H57.2238V20.3968ZM16.0222 15.8606V15.6086H15.5166V15.8606H16.0222ZM18.8026 16.6166V16.1126C18.8026 15.7766 18.6341 15.6086 18.2971 15.6086C17.9601 15.6506 17.7916 15.9026 17.7916 16.3646L18.8026 16.6166ZM52.6739 16.6166C53.011 16.6166 53.1795 16.4486 53.1795 16.1126L52.6739 15.8606V16.6166ZM22.3414 16.8686V16.1126H22.0887V16.8686H22.3414ZM51.9156 18.8847C51.7471 18.5487 51.6628 18.2127 51.6628 17.8767H52.1684C51.6628 17.0366 51.4101 16.4486 51.4101 16.1126H51.1573V16.8686C51.3258 17.2046 51.4101 17.4567 51.4101 17.6247H50.9045C51.2416 18.1707 51.4101 18.5907 51.4101 18.8847H51.9156ZM21.0776 16.6166V16.3646H20.572V16.6166H21.0776ZM46.6074 17.1206V16.8686H46.1019V17.1206H46.6074ZM49.3879 17.3727C49.3879 17.0366 49.2194 16.8686 48.8824 16.8686V17.3727H49.3879ZM46.6074 18.1287C46.6074 17.9607 46.6917 17.7087 46.8602 17.3727C46.4389 17.3727 46.1019 17.6247 45.8491 18.1287H46.6074ZM42.3103 18.1287V17.6247H42.8159C42.8159 17.9607 42.6474 18.1287 42.3103 18.1287ZM52.1684 19.8928C52.5054 19.7248 52.7582 19.6408 52.9267 19.6408L52.6739 18.3807L52.9267 17.8767H52.4212C52.4212 18.2127 52.3369 18.3807 52.1684 18.3807C52.3369 18.7167 52.4212 18.9687 52.4212 19.1367C52.2526 19.4727 52.1684 19.7248 52.1684 19.8928ZM22.0887 18.6327V18.1287H21.8359V18.6327H22.0887ZM49.6407 19.6408L49.8934 19.1367V18.8847H49.6407C49.6407 19.2207 49.4722 19.3887 49.1351 19.3887V19.6408H49.6407ZM19.3082 19.8928V19.6408H18.8026V19.8928H19.3082ZM45.3436 21.6568L45.8491 21.4048L45.5963 20.9008V20.6488C45.9334 20.6488 46.1019 20.5648 46.1019 20.3968C45.9334 20.0608 45.8491 19.8088 45.8491 19.6408L45.0908 20.1448L45.3436 20.6488C45.3436 20.8168 45.2593 20.9008 45.0908 20.9008C45.2593 21.2368 45.3436 21.4888 45.3436 21.6568ZM51.1573 20.1448V19.6408H50.9045V20.1448H51.1573ZM51.6628 20.1448V19.6408H51.4101V20.1448H51.6628ZM54.1905 22.6649V21.9088C53.8535 21.9088 53.5165 21.2368 53.1795 19.8928H52.9267V20.1448C53.6008 21.6148 53.9378 22.4549 53.9378 22.6649H54.1905ZM49.1351 20.9008V20.3968H48.8824V20.9008H49.1351ZM21.0776 21.1528C21.4146 21.1528 21.5831 20.9848 21.5831 20.6488H21.0776V21.1528ZM50.9045 21.9088L51.1573 20.6488C50.9045 20.6488 50.6518 20.9008 50.399 21.4048C50.5675 21.4048 50.6518 21.4888 50.6518 21.6568C50.4832 21.6568 50.399 21.7408 50.399 21.9088H50.9045ZM51.9156 21.4048C52.2526 21.4048 52.4212 21.2368 52.4212 20.9008L51.9156 20.6488V21.4048ZM19.3082 21.1528V20.9008H18.8026V21.1528H19.3082ZM57.2238 23.1689H56.7183V20.9008H57.2238V23.1689ZM42.8159 21.9088H42.3103C42.3525 21.5728 42.521 21.4048 42.8159 21.4048V21.9088ZM52.1684 22.1609V21.6568H51.9156V22.1609H52.1684ZM44.838 24.933C44.838 24.555 44.9223 24.2189 45.0908 23.9249C44.9223 23.9249 44.838 23.8409 44.838 23.6729C45.1751 23.6729 45.4278 23.0849 45.5963 21.9088H44.5853L44.838 22.4129C44.501 23.6729 44.3325 24.429 44.3325 24.681L44.838 24.933ZM18.8026 22.6649V22.1609H18.5499V22.6649H18.8026ZM21.0776 22.6649V22.1609H20.8248V22.6649H21.0776ZM48.3768 22.9169V22.4129H48.1241V22.9169H48.3768ZM28.1552 23.1689V22.6649H27.9024V23.1689H28.1552ZM50.1462 23.4209C50.4832 23.4209 50.6518 23.1689 50.6518 22.6649C50.3147 22.7069 50.1462 22.9589 50.1462 23.4209ZM51.9156 23.1689V22.6649H51.6628V23.1689H51.9156ZM18.5499 23.6729V23.1689H18.2971V23.6729H18.5499ZM55.2016 24.1769C55.2016 23.9249 54.9489 23.6729 54.4433 23.4209H53.9378C53.9378 23.7989 54.3591 24.0509 55.2016 24.1769ZM28.1552 24.1769V23.6729H27.9024V24.1769H28.1552ZM50.1462 24.429V23.9249H49.8934V24.429H50.1462ZM53.685 24.429V23.9249H53.4322V24.429H53.685ZM51.4101 26.193C51.4101 25.353 51.5786 24.681 51.9156 24.1769H51.4101C51.4101 24.681 51.2416 24.933 50.9045 24.933C51.073 25.227 51.1573 25.647 51.1573 26.193H51.4101ZM57.2238 27.4531H56.7183V23.9249H57.2238V24.933C57.2238 25.101 57.1395 25.185 56.971 25.185L57.2238 25.689C57.2238 26.025 57.1395 26.193 56.971 26.193L57.2238 26.6971V27.4531ZM47.3657 24.933C47.7028 24.933 47.8713 24.765 47.8713 24.429H47.3657V24.933ZM54.6961 24.933V24.429H54.4433V24.933H54.6961ZM46.3547 31.2332C46.6074 31.2332 47.1972 30.4772 48.1241 28.9651L48.6296 29.2172H48.8824V28.9651H48.3768V28.7131H48.8824V28.2091H48.3768V27.7051L49.6407 27.9571C49.6407 27.6211 49.4722 27.4531 49.1351 27.4531C49.4722 26.445 49.9777 25.941 50.6518 25.941C50.3147 25.521 50.1462 25.185 50.1462 24.933C49.3036 25.143 48.8824 25.395 48.8824 25.689C49.2194 25.689 49.3879 25.773 49.3879 25.941C49.3879 26.151 48.7981 26.9071 47.6185 28.2091C47.6185 28.8391 47.1972 29.4272 46.3547 29.9732L46.6074 30.4772C46.4389 30.8132 46.3547 31.0652 46.3547 31.2332ZM45.8491 25.941V25.437H45.3436C45.3857 25.773 45.5542 25.941 45.8491 25.941ZM28.1552 26.193V25.941H27.6496V26.193H28.1552ZM29.1662 26.9491V26.445H28.9135V26.9491H29.1662ZM27.6496 27.9571V27.4531H27.3968V27.9571H27.6496ZM26.133 28.7131V28.2091C26.133 27.8731 25.9645 27.7051 25.6275 27.7051C25.6275 28.3771 25.796 28.7131 26.133 28.7131ZM27.9024 32.9973V32.4933H27.6496V32.9973H27.9024ZM29.1662 32.9973V32.4933H28.9135V32.9973H29.1662ZM23.3525 33.5013V32.9973H23.0997V33.5013H23.3525ZM16.7805 33.5013V33.2493H16.2749V33.5013H16.7805ZM26.6385 34.7614V34.2574H26.3858V34.7614H26.6385ZM27.6496 35.7694V35.5174H27.1441V35.7694H27.6496ZM16.2749 36.5255V36.0214C15.9379 36.0634 15.7694 36.2315 15.7694 36.5255H16.2749ZM41.552 39.2976C41.552 38.8776 41.889 38.6256 42.5631 38.5416V38.2895H42.0576L41.2992 39.2976H41.552ZM41.8048 40.3056V40.0536H41.2992V40.3056H41.8048ZM42.3103 41.3137C42.1418 40.9777 42.0576 40.7256 42.0576 40.5576H41.8048V41.3137H42.3103ZM19.561 41.3137V40.8097H19.3082V41.3137H19.561ZM26.8913 41.5657C27.2283 41.5657 27.3968 41.3977 27.3968 41.0617H26.8913V41.5657ZM17.7916 42.5737L18.8026 41.5657H18.5499C17.9179 42.0697 17.4967 42.3217 17.286 42.3217V42.5737H17.7916ZM15.5166 43.0777V42.5737C15.1796 42.7417 14.9268 42.8257 14.7583 42.8257V43.0777H15.5166ZM18.5499 43.0777V42.5737H18.0443C18.0865 42.9097 18.255 43.0777 18.5499 43.0777ZM46.3547 45.5979C46.3547 45.2618 46.5232 44.4218 46.8602 43.0777H46.3547C46.1861 43.9178 46.1019 44.7578 46.1019 45.5979H46.3547ZM26.3858 45.3458C26.3858 45.1778 26.6385 44.5898 27.1441 43.5818V43.3298H26.8913C26.8913 43.7498 26.5543 44.4218 25.8802 45.3458H26.3858ZM28.9135 43.8338C29.2505 43.8338 29.419 43.6658 29.419 43.3298H28.9135V43.8338ZM15.5166 44.0858C15.5166 43.7498 15.3481 43.5818 15.0111 43.5818V44.0858H15.5166ZM17.7916 44.0858C17.7916 43.7498 17.4545 43.5818 16.7805 43.5818V43.8338L17.7916 44.0858ZM42.3103 44.3378V43.5818H42.0576C42.0576 43.7498 41.9733 44.0018 41.8048 44.3378H42.3103ZM42.8159 44.5898V44.0858H42.5631V44.5898H42.8159ZM19.0554 44.5898V44.3378H18.5499V44.5898H19.0554ZM55.9599 45.0938V44.3378H55.7072C55.7072 44.5058 55.6229 44.7578 55.4544 45.0938H55.9599ZM42.0576 45.3458V44.5898H41.552C41.552 45.0938 41.7205 45.3458 42.0576 45.3458ZM54.9489 45.3458C54.9489 44.8418 54.7803 44.5898 54.4433 44.5898C54.4433 45.0938 54.6118 45.3458 54.9489 45.3458ZM45.3436 45.3458V44.8418H45.0908V45.3458H45.3436ZM47.3657 46.6059L47.6185 45.3458H47.113V46.6059H47.3657ZM52.4212 46.1019C52.4212 45.7659 52.2526 45.5979 51.9156 45.5979V46.1019H52.4212ZM61.0154 46.1019H60.7626C60.4256 46.1019 60.257 45.8499 60.257 45.3458C60.5098 45.3458 60.7626 45.5979 61.0154 46.1019ZM46.1019 46.6059V46.1019C45.7649 46.1439 45.5963 46.3119 45.5963 46.6059H46.1019ZM27.6496 46.8579C27.6496 46.5219 27.3968 46.3539 26.8913 46.3539C26.9334 46.6899 27.1862 46.8579 27.6496 46.8579ZM45.3436 48.874L45.8491 48.622C45.6806 48.286 45.5963 48.034 45.5963 47.866C45.7649 47.5299 45.8491 47.2779 45.8491 47.1099L45.3436 46.8579C45.3436 48.034 45.2593 48.706 45.0908 48.874H45.3436ZM55.2016 49.63L54.4433 48.622C54.6118 47.7819 54.6961 47.2779 54.6961 47.1099H54.4433C54.2748 47.824 54.1905 48.412 54.1905 48.874C54.5276 48.874 54.6961 49.126 54.6961 49.63H55.2016ZM62.2792 47.3619C61.7737 47.3619 61.5209 47.1939 61.5209 46.8579C62.0264 46.8579 62.2792 47.0259 62.2792 47.3619ZM40.7937 48.622C40.6252 48.286 40.5409 48.034 40.5409 47.866H40.2882V48.622H40.7937ZM46.8602 49.378V48.37H47.113V48.118H46.6074L46.3547 48.622V49.378H46.8602ZM35.2327 49.63V49.126H34.98V49.63H35.2327ZM40.0354 49.63V49.126H39.7826V49.63H40.0354ZM58.4877 49.63V49.126H57.9821V49.63H58.4877ZM45.3436 50.134L45.5963 49.63V49.378H44.838C44.838 49.882 45.0065 50.134 45.3436 50.134ZM40.0354 50.3861C40.0354 50.134 39.7826 49.882 39.2771 49.63H39.0243V49.882C39.3613 49.882 39.5298 50.05 39.5298 50.3861H40.0354ZM16.5277 50.6381C16.3592 50.3021 16.2749 50.05 16.2749 49.882H16.0222V50.6381H16.5277ZM48.6296 50.3861V49.882H48.3768V50.3861H48.6296ZM34.98 50.6381V50.134H34.7272V50.6381H34.98ZM52.4212 53.4102C52.9267 53.3682 53.685 52.3601 54.6961 50.3861V50.134H54.4433L53.4322 51.3941L52.9267 51.1421V52.1501H52.6739L52.9267 52.6542C52.9267 52.9902 52.6739 53.1582 52.1684 53.1582V53.4102H52.4212ZM39.2771 51.3941C39.2771 50.8901 39.1086 50.6381 38.7715 50.6381C38.7715 51.1421 38.94 51.3941 39.2771 51.3941ZM45.0908 51.3941V50.6381H44.838C44.838 50.8061 44.7538 51.0581 44.5853 51.3941H45.0908ZM46.8602 51.1421C46.8602 50.8061 46.6074 50.6381 46.1019 50.6381V51.1421H46.8602ZM34.7272 51.6461C35.0642 51.6461 35.2327 51.4781 35.2327 51.1421H34.7272V51.6461ZM48.8824 51.6461C48.8824 51.3101 48.7139 51.1421 48.3768 51.1421V51.6461H48.8824ZM47.8713 51.6461V51.3941H47.3657V51.6461H47.8713ZM41.8048 52.6542C41.8048 52.4861 41.889 52.2341 42.0576 51.8981L41.0465 51.6461L40.5409 52.4021C40.7094 52.4021 40.7937 52.4861 40.7937 52.6542L41.2992 52.4021L41.8048 52.6542ZM39.2771 52.4021V51.8981H39.0243V52.4021H39.2771ZM44.838 52.9062L44.5853 52.4021L44.838 51.8981H44.0797V52.1501C44.2482 52.4861 44.3325 52.7382 44.3325 52.9062H44.838ZM63.0375 52.4021H62.532V51.6461H63.0375V52.4021ZM46.3547 52.6542C46.3547 52.3181 46.1861 52.1501 45.8491 52.1501V52.6542H46.3547ZM24.8691 53.6622V53.4102C24.8691 53.0742 24.6164 52.9062 24.1108 52.9062C24.1108 53.1582 24.3636 53.4102 24.8691 53.6622ZM39.0243 53.4102V52.9062C38.6873 52.9482 38.5188 53.1162 38.5188 53.4102H39.0243ZM60.257 53.6622V53.1582H60.0043V53.6622H60.257ZM23.3525 53.6622V53.4102H22.847V53.6622H23.3525ZM26.8913 54.1662V53.9142C26.8913 53.5782 26.6385 53.4102 26.133 53.4102C26.133 53.9142 26.3858 54.1662 26.8913 54.1662ZM28.6607 55.1743C28.6607 54.8382 28.8292 54.6702 29.1662 54.6702V53.6622H28.9135C28.9135 53.9562 28.745 54.3762 28.4079 54.9223V55.1743H28.6607ZM41.0465 54.4182V53.9142H40.7937V54.4182H41.0465ZM51.6628 55.1743C51.9156 55.1743 52.2526 54.8382 52.6739 54.1662L52.1684 53.9142C52.1684 54.2082 51.9156 54.6282 51.4101 55.1743H51.6628ZM38.266 55.4263L38.5188 54.1662C38.1817 54.1662 38.0132 54.5862 38.0132 55.4263H38.266ZM42.0576 83.3995C42.0576 83.2315 42.1418 82.9794 42.3103 82.6434C41.9733 82.6434 41.8048 82.3914 41.8048 81.8874H38.7715V81.1314H38.5188C38.5188 81.6354 38.3503 81.8874 38.0132 81.8874C37.6762 81.8874 37.5077 81.7194 37.5077 81.3834C37.6762 80.3753 37.929 79.8713 38.266 79.8713C38.603 79.8713 38.7715 80.1233 38.7715 80.6273C39.4035 80.1233 39.9933 79.8713 40.5409 79.8713H42.8159C42.9844 79.8713 43.0686 79.9553 43.0686 80.1233L43.5742 79.8713H47.3657V68.5308C47.3657 68.1528 47.45 67.8168 47.6185 67.5228C47.6185 67.3548 47.5343 67.2708 47.3657 67.2708C47.3657 63.9526 48.2083 61.1805 49.8934 58.9544H49.3879L48.1241 61.7265H47.6185V54.4182C47.4079 54.4182 46.144 55.6783 43.8269 58.1984L43.3214 57.9464C43.4899 57.6104 43.5742 57.1063 43.5742 56.4343H43.3214C43.3214 58.8704 41.9733 60.6345 39.2771 61.7265C39.2771 61.9366 37.5077 63.7006 33.9689 67.0188H33.7161V66.7668L34.2217 66.0107V65.7587H33.7161C32.8735 68.2788 31.9467 69.7909 30.9356 70.2949C30.9356 70.5469 30.3458 71.1349 29.1662 72.059L28.9135 71.555C29.1241 71.555 30.1352 70.4629 31.9467 68.2788H31.4412C31.3991 69.0349 30.388 69.8749 28.4079 70.7989C28.1973 71.0509 27.9445 71.723 27.6496 72.815C27.8181 73.7391 27.9024 74.4111 27.9024 74.8311L27.6496 82.8954H27.9024L28.6607 82.3914H32.705C33.0842 82.3914 33.4212 82.4754 33.7161 82.6434C34.011 82.4754 34.348 82.3914 34.7272 82.3914H37.2549V82.8954H36.7494V83.1475H37.7605V82.8954H40.5409V82.3914H41.0465C41.3835 82.9374 41.552 83.2735 41.552 83.3995H42.0576ZM60.5098 55.4263V54.4182H60.257V55.4263H60.5098ZM63.2903 59.7105C62.7848 59.7105 62.532 59.5424 62.532 59.2064V54.1662H63.2903V54.9223C63.2903 55.0903 63.206 55.1743 63.0375 55.1743L63.2903 55.6783V59.7105ZM53.4322 54.9223V54.6702H52.9267V54.9223H53.4322ZM50.399 58.4504L51.6628 55.6783H51.1573C51.1573 56.0143 50.6518 56.9383 49.6407 58.4504H50.399ZM55.9599 56.4343V55.9303H55.7072V56.4343H55.9599ZM38.0132 57.1903L38.5188 56.1823H38.0132C38.0132 56.5603 37.929 56.8963 37.7605 57.1903H38.0132ZM35.4855 56.9383C35.8225 56.9383 35.9911 56.7703 35.9911 56.4343H35.4855V56.9383ZM55.7072 57.9464L55.4544 56.6863H55.2016V57.9464H55.7072ZM60.5098 58.1984V57.1903C60.1728 57.2323 60.0043 57.4004 60.0043 57.6944V58.1984H60.5098ZM58.9932 58.9544C58.9932 58.6184 58.8247 58.4504 58.4877 58.4504V58.9544H58.9932ZM41.0465 60.4665V60.2145H40.5409V60.4665H41.0465ZM51.1573 61.2225V60.7185H50.9045V61.2225H51.1573ZM54.1905 61.2225V60.7185H53.685C53.7271 61.0545 53.8956 61.2225 54.1905 61.2225ZM49.3879 62.7346L49.6407 61.4745C49.3458 61.4745 49.093 61.8946 48.8824 62.7346H49.3879ZM50.6518 62.9866L51.1573 62.7346C50.9888 62.4406 50.9045 62.1046 50.9045 61.7265H50.1462L50.399 62.2306L50.1462 62.7346L50.6518 62.9866ZM35.4855 62.7346V62.2306H35.2327V62.7346H35.4855ZM37.0021 63.4906L37.7605 62.4826H37.5077L36.7494 63.4906H37.0021ZM53.9378 62.9866C53.9378 62.6506 53.7693 62.4826 53.4322 62.4826V62.9866H53.9378ZM26.3858 63.2386V62.7346H26.133V63.2386H26.3858ZM34.2217 65.0027C34.5587 65.0027 34.8957 64.3307 35.2327 62.9866C34.8536 62.9866 34.4323 63.6586 33.9689 65.0027H34.2217ZM55.2016 63.4906V62.9866C54.8646 63.0286 54.6961 63.1966 54.6961 63.4906H55.2016ZM54.1905 63.7426V63.4906H53.685V63.7426H54.1905ZM51.6628 64.2466V63.7426H51.4101V64.2466H51.6628ZM48.3768 64.7507C48.7139 64.7507 48.8824 64.4987 48.8824 63.9946C48.5453 64.0366 48.3768 64.2886 48.3768 64.7507ZM54.1905 64.4987V63.9946H53.9378V64.4987H54.1905ZM32.4523 65.5067V65.0027H32.1995V65.5067H32.4523ZM51.6628 65.7587C51.4943 65.4227 51.4101 65.1707 51.4101 65.0027H51.1573V65.5067L51.6628 65.7587ZM24.6164 68.5308C24.6164 68.0268 24.8691 67.7748 25.3747 67.7748V67.5228C25.2062 67.5228 24.9534 67.4388 24.6164 67.2708L24.3636 67.7748V68.5308H24.6164ZM24.1108 71.3029V70.2949H23.8581V71.3029H24.1108ZM23.6053 72.563V72.059H23.3525V72.563H23.6053ZM48.8824 72.815V72.563H48.3768V72.815H48.8824ZM22.847 74.3271V73.571H22.5942V74.3271H22.847ZM22.3414 75.8391V75.3351H22.0887V75.8391H22.3414ZM29.419 76.8472H28.6607V75.8391H29.419V76.8472ZM22.3414 76.5952V76.3432H21.8359V76.5952H22.3414ZM36.4966 81.8874H36.2438V81.1314H36.7494V80.8794H31.4412C31.4412 80.3753 31.6097 80.1233 31.9467 80.1233C33.337 80.1233 34.1795 80.2073 34.4744 80.3753C35.3591 80.0393 36.286 79.8713 37.2549 79.8713L37.5077 80.3753C37.0443 81.3834 36.7072 81.8874 36.4966 81.8874ZM55.7072 81.3834C55.7072 81.1314 55.3701 80.7954 54.6961 80.3753C54.9489 81.0474 55.2859 81.3834 55.7072 81.3834ZM56.2127 80.8794V80.3753C55.8757 80.4173 55.7072 80.5853 55.7072 80.8794H56.2127ZM20.572 82.1394V81.3834C20.235 81.4254 20.0665 81.6774 20.0665 82.1394H20.572ZM55.7072 82.1394V81.6354H55.4544V82.1394H55.7072ZM55.4544 83.9035C56.0863 83.9035 56.5919 83.1475 56.971 81.6354C55.9599 82.5594 55.4544 83.3155 55.4544 83.9035ZM61.2681 82.8954V82.6434H60.7626V82.8954H61.2681ZM20.572 83.3995C20.572 83.0634 20.3193 82.8954 19.8137 82.8954V83.3995H20.572ZM52.4212 83.6515C52.7582 83.6515 52.9267 83.3995 52.9267 82.8954H52.4212V83.6515ZM28.9135 83.6515V83.3995H28.4079V83.6515H28.9135ZM36.7494 84.1555V83.6515H36.4966V84.1555H36.7494ZM27.3968 84.9115C27.3968 84.7435 27.4811 84.4915 27.6496 84.1555V83.9035H27.3968C27.3968 84.0715 27.3126 84.3235 27.1441 84.6595V84.9115H27.3968ZM53.9378 86.1716C54.1905 86.1716 54.5276 85.8356 54.9489 85.1635H54.4433C54.4433 84.6595 54.6118 84.4075 54.9489 84.4075C54.991 84.7435 55.1595 84.9115 55.4544 84.9115V84.1555L54.4433 83.9035L54.6961 84.4075C54.1905 84.4075 53.9378 84.5755 53.9378 84.9115V85.6676H53.685V86.1716H53.9378ZM50.9045 89.4477C50.9045 88.9857 51.1573 88.5657 51.6628 88.1877C51.3258 87.3476 51.1573 86.7596 51.1573 86.4236C51.3258 85.7516 51.4101 85.1635 51.4101 84.6595L50.9045 84.4075C50.9045 84.5755 50.8203 84.6595 50.6518 84.6595L50.9045 86.6756L49.3879 88.6917C49.3879 89.1957 49.8934 89.4477 50.9045 89.4477ZM56.971 86.4236V86.1716C56.634 85.6256 56.4655 85.2055 56.4655 84.9115H56.2127V85.9196C56.2548 86.2556 56.5076 86.4236 56.971 86.4236ZM37.5077 85.6676C37.8447 85.6676 38.0132 85.4995 38.0132 85.1635H37.5077V85.6676ZM62.2792 85.9196V85.4156H62.0264V85.9196H62.2792ZM26.8913 86.6756L27.1441 85.6676C26.8071 85.6676 26.6385 86.0036 26.6385 86.6756H26.8913ZM35.7383 86.4236C36.0753 86.4236 36.2438 86.1716 36.2438 85.6676C35.9068 85.7096 35.7383 85.9616 35.7383 86.4236ZM42.5631 86.4236C42.9001 86.4236 43.0686 86.2556 43.0686 85.9196H42.3103V86.4236H42.5631ZM40.7937 86.6756V86.1716H40.5409V86.6756H40.7937ZM37.5077 86.9276V86.4236C37.1707 86.4656 37.0021 86.6336 37.0021 86.9276H37.5077ZM53.1795 86.9276V86.6756C53.011 86.6756 52.7582 86.5916 52.4212 86.4236H52.1684V86.6756C52.3369 86.6756 52.5897 86.7596 52.9267 86.9276H53.1795ZM18.5499 87.1796V86.6756H18.0443C18.0865 87.0116 18.255 87.1796 18.5499 87.1796ZM25.6275 89.6997C26.3436 88.6917 26.7649 88.1877 26.8913 88.1877H27.3968V87.9357C26.8913 87.9357 26.6385 87.7676 26.6385 87.4316L26.8913 86.9276H26.3858L26.133 87.9357C26.3015 87.9357 26.3858 88.0197 26.3858 88.1877C26.0487 88.1877 25.796 88.6917 25.6275 89.6997ZM55.2016 87.6836V87.1796H54.9489V87.6836H55.2016ZM57.7293 87.4316V87.1796H57.2238V87.4316H57.7293ZM39.5298 88.1877V87.6836H39.0243C39.0664 88.0197 39.2349 88.1877 39.5298 88.1877ZM57.2238 89.9517C57.5187 89.7837 57.8557 89.6997 58.2349 89.6997C57.8557 88.5237 57.2659 87.8517 56.4655 87.6836V87.9357C57.1395 88.4397 57.4766 88.8597 57.4766 89.1957C57.3081 89.5317 57.2238 89.7837 57.2238 89.9517ZM35.9911 88.4397V87.9357C35.654 87.9777 35.4855 88.1457 35.4855 88.4397H35.9911ZM39.0243 89.1957C39.0243 88.8597 38.8558 88.6917 38.5188 88.6917H38.0132C38.0553 89.0277 38.2239 89.1957 38.5188 89.1957H39.0243ZM37.2549 89.6997C37.5919 89.6997 37.7605 89.4477 37.7605 88.9437H37.2549V89.6997ZM18.0443 90.9598C18.2128 90.1198 18.2971 89.5317 18.2971 89.1957H18.0443C17.8758 90.2038 17.7916 90.7918 17.7916 90.9598H18.0443ZM25.6275 90.9598V90.2038H25.3747V90.9598H25.6275ZM36.2438 90.9598C36.5809 90.9598 36.7494 90.7078 36.7494 90.2038H35.9911C36.1596 90.5398 36.2438 90.7918 36.2438 90.9598ZM34.98 90.9598V90.4558H34.2217V90.7078C34.3902 90.7078 34.6429 90.7918 34.98 90.9598ZM35.9911 92.9759C35.9911 92.8079 36.0753 92.5559 36.2438 92.2198C36.0753 91.8838 35.9911 91.6318 35.9911 91.4638H35.7383C35.7383 92.2198 35.654 92.7239 35.4855 92.9759H35.9911ZM27.1441 92.2198V91.7158H26.8913V92.2198H27.1441ZM17.5388 92.4718V91.9678H17.286V92.4718H17.5388ZM34.7272 93.2279C34.7272 92.8919 34.5587 92.7239 34.2217 92.7239V93.2279H34.7272ZM24.6164 93.7319V92.9759H24.3636V93.7319H24.6164ZM35.4855 94.4879L35.7383 93.2279C35.4013 93.2699 35.2327 93.4379 35.2327 93.7319V94.4879H35.4855ZM35.2327 95.496V94.992C34.8957 95.034 34.7272 95.202 34.7272 95.496H35.2327ZM36.7494 95.496C37.0864 95.496 37.2549 95.328 37.2549 94.992H36.7494V95.496Z" fill="#B0E31B"/>
<path d="M95.1394 96H82.2481C76.8978 96 73.022 93.0599 70.6206 87.1796C70.1151 84.7855 69.8623 83.3575 69.8623 82.8954H70.3679V38.2895H70.8734C70.8734 44.4218 70.9577 50.05 71.1262 55.1743H71.379V50.8901L71.1262 49.63C71.4632 49.63 71.6317 49.462 71.6317 49.126C71.6317 43.9178 71.716 39.0456 71.8845 34.5094L71.6317 32.9973C71.8002 32.7033 71.8845 32.2833 71.8845 31.7373C71.716 31.4013 71.6317 31.1492 71.6317 30.9812C71.9688 30.4352 72.1373 29.8472 72.1373 29.2172H71.6317V26.193C71.6317 25.983 71.8002 25.059 72.1373 23.4209V16.1126C72.1373 11.1144 74.4122 7.58624 78.9621 5.52815C80.6893 5.02413 83.0485 4.77212 86.0397 4.77212H91.6006C91.7691 4.77212 91.8534 4.85612 91.8534 5.02413L92.3589 4.77212L92.8645 5.02413L94.1283 4.77212V5.02413L94.6339 4.77212C96.656 4.77212 97.6671 4.85612 97.6671 5.02413L98.1727 4.77212H99.1837V5.02413L98.6782 5.78016H99.6893C99.6893 5.10813 99.8578 4.77212 100.195 4.77212V4.52011C99.8578 4.52011 99.6893 4.3521 99.6893 4.01609H98.931C98.931 4.3521 98.8467 4.52011 98.6782 4.52011C98.5097 4.52011 98.4254 4.4361 98.4254 4.2681L97.1616 4.52011C95.8977 4.52011 92.3589 4.4361 86.5452 4.2681C86.5452 3.76408 85.4499 3.51206 83.2592 3.51206C80.7315 3.51206 78.4565 4.01609 76.4344 5.02413H76.1816V4.52011C78.2038 3.17605 81.9111 2.50402 87.3035 2.50402H105.756C109.126 2.50402 111.991 3.42806 114.35 5.27614C117.552 8.21626 119.153 11.6604 119.153 15.6086V21.6568C119.153 21.8248 119.068 21.9088 118.9 21.9088L119.153 22.4129V26.445C119.153 26.9491 119.068 27.2011 118.9 27.2011L119.153 28.4611V38.2895L118.647 39.0456V39.2976H119.153C119.153 48.454 119.068 54.5862 118.9 57.6944C118.9 57.8624 118.984 57.9464 119.153 57.9464L118.9 59.2064V72.563L95.1394 96ZM75.4233 5.78016H74.9178C74.9178 5.27614 75.0863 5.02413 75.4233 5.02413H76.1816C76.1816 5.27614 75.9288 5.52815 75.4233 5.78016ZM107.778 8.55228C111.317 6.7882 113.255 5.69616 113.592 5.27614H113.339C109.8 7.12422 107.862 8.04826 107.525 8.04826V8.55228H107.778ZM98.6782 7.04021C99.0152 7.04021 99.1837 6.87221 99.1837 6.53619C98.6782 6.53619 98.4254 6.7042 98.4254 7.04021H98.6782ZM75.1705 7.04021H74.665C74.7071 6.7042 74.8756 6.53619 75.1705 6.53619V7.04021ZM100.195 8.55228V8.04826C99.8578 8.09026 99.6893 8.25827 99.6893 8.55228H100.195ZM77.1927 9.0563V8.55228H76.9399V9.0563H77.1927ZM106.261 9.56032C106.514 9.56032 106.767 9.30831 107.02 8.80429V8.55228H106.767C106.767 8.88829 106.598 9.0563 106.261 9.0563V9.56032ZM73.9067 8.80429H73.4011V8.55228H73.9067V8.80429ZM79.4676 10.0643C79.7204 10.0643 79.9732 9.81233 80.2259 9.30831C80.2259 8.9723 80.0574 8.80429 79.7204 8.80429L79.4676 10.0643ZM102.975 11.5764C104.618 10.5684 105.629 9.98034 106.009 9.81233V9.30831C104.366 10.4844 103.354 11.0724 102.975 11.0724V11.5764ZM97.9199 10.8204C98.2569 10.6524 98.5097 10.5684 98.6782 10.5684V10.0643C98.1727 10.0643 97.9199 10.3164 97.9199 10.8204ZM102.723 12.0804V11.5764C102.386 11.6184 102.217 11.7864 102.217 12.0804H102.723ZM99.6893 12.5844V12.3324H99.1837V12.5844H99.6893ZM74.4122 13.0885V12.5844H74.1594V13.0885H74.4122ZM99.9421 13.8445L101.459 12.5844H101.206C100.237 13.2565 99.5629 13.5925 99.1837 13.5925V13.8445H99.9421ZM95.8977 16.6166C97.6671 15.2726 98.6782 14.6005 98.931 14.6005V13.8445H97.9199C97.9199 14.9366 97.2458 15.6926 95.8977 16.1126V16.6166ZM98.6782 16.6166C99.0152 16.6166 99.1837 16.4486 99.1837 16.1126H98.4254V16.6166H98.6782ZM95.3922 17.1206V16.6166C95.0552 16.7846 94.8024 16.8686 94.6339 16.8686V17.1206H95.3922ZM94.3811 17.8767V17.3727C94.0441 17.4147 93.8756 17.5827 93.8756 17.8767H94.3811ZM97.9199 17.8767V17.3727H97.6671V17.8767H97.9199ZM104.745 17.8767C105.082 17.8767 105.25 17.7087 105.25 17.3727H104.745V17.8767ZM107.02 19.6408V19.1367C106.093 18.4647 105.503 18.1287 105.25 18.1287L104.997 18.6327C104.997 18.8427 105.419 19.1787 106.261 19.6408H107.02ZM74.9178 18.8847V18.3807C74.5807 18.4227 74.4122 18.5907 74.4122 18.8847H74.9178ZM85.5341 84.9115C85.7448 84.3655 87.1771 83.1895 89.8312 81.3834C94.4654 76.4692 97.4143 73.613 98.6782 72.815C98.6782 72.605 100.953 70.3369 105.503 66.0107V40.8097H105.25L104.997 42.3217C105.166 42.6577 105.25 42.9097 105.25 43.0777H104.997L105.25 43.5818C105.25 43.7498 105.166 43.8338 104.997 43.8338L105.25 45.0938C105.25 47.2779 105.082 48.37 104.745 48.37L104.997 48.874V50.6381H104.239V49.378H103.986V58.7024H103.481V57.6944C103.481 57.5264 103.565 57.4424 103.734 57.4424C103.565 56.2663 103.397 55.6783 103.228 55.6783C103.228 55.3423 103.312 55.1743 103.481 55.1743C103.312 52.6542 103.228 50.8061 103.228 49.63V18.3807H85.5341V24.1769C85.5341 24.3449 85.4499 24.429 85.2813 24.429L85.5341 24.933V70.7989H85.0286V83.9035C86.798 82.1394 89.0729 80.1233 91.8534 77.8552V78.1072C89.0308 80.8374 86.8401 83.1055 85.2813 84.9115H85.5341ZM82.5009 21.9088V21.6568H81.9953V21.9088H82.5009ZM70.8734 34.7614H70.3679V25.437H70.8734C70.8734 28.9651 70.7892 30.7292 70.6206 30.7292L70.8734 31.2332V34.7614ZM115.867 29.9732V29.4692H115.614V29.9732H115.867ZM113.339 31.7373C113.592 31.7373 113.844 31.4853 114.097 30.9812C113.76 31.1492 113.507 31.2332 113.339 31.2332V31.7373ZM111.064 33.5013L111.317 32.9973H111.064L110.811 33.5013H111.064ZM109.547 34.7614L109.8 34.2574C109.463 34.4254 109.21 34.5094 109.042 34.5094V34.7614H109.547ZM70.8734 36.2735H70.3679V35.5174H70.8734V36.2735ZM81.237 42.3217C81.4898 42.3217 81.8268 41.9857 82.2481 41.3137C81.9111 41.3137 81.7426 41.1457 81.7426 40.8097C81.237 40.8097 80.9842 40.9777 80.9842 41.3137V42.3217H81.237ZM83.2592 42.5737V41.5657C82.9222 41.6077 82.7536 41.7757 82.7536 42.0697V42.5737H83.2592ZM83.2592 43.0777V42.8257H82.7536V43.0777H83.2592ZM83.512 44.5898C83.849 44.0438 84.0175 43.6238 84.0175 43.3298C83.4698 43.8338 82.9643 44.0858 82.5009 44.0858V44.3378L83.512 44.5898ZM73.9067 44.0858V43.5818H73.6539V44.0858H73.9067ZM84.523 46.1019V45.5979H84.0175V46.1019H84.523ZM83.0064 46.6059V46.1019H82.7536V46.6059H83.0064ZM81.4898 47.1099C81.8268 47.1099 81.9953 46.8579 81.9953 46.3539C81.6583 46.3959 81.4898 46.6479 81.4898 47.1099ZM83.512 49.63C83.512 48.958 83.9332 48.286 84.7758 47.6139V47.3619H84.2703C83.2592 47.908 82.7536 48.496 82.7536 49.126L83.512 49.63ZM84.523 49.882V49.126H84.0175V49.882H84.523ZM113.844 54.4182V54.1662H113.339V54.4182H113.844ZM82.2481 55.4263V54.9223H81.9953V55.4263H82.2481ZM104.997 60.9705H104.492V59.7105H104.997V60.9705ZM103.228 66.2627C103.228 65.7587 103.397 65.5067 103.734 65.5067C103.734 66.0107 103.565 66.2627 103.228 66.2627ZM71.1262 69.2869V68.7828H70.8734V69.2869H71.1262ZM96.656 73.067H96.4033C96.4033 72.647 96.656 72.311 97.1616 72.059H97.4143C97.4143 72.479 97.1616 72.815 96.656 73.067ZM71.1262 74.8311V74.0751H70.8734V74.8311H71.1262ZM84.523 78.8633V75.0831H84.2703V78.8633H84.523ZM84.523 81.1314V80.6273H84.2703V81.1314H84.523Z" fill="#B0E31B"/>
<path d="M165.662 96L165.157 95.748C164.988 95.748 164.904 95.832 164.904 96L163.64 95.748H159.849C159.512 95.748 159.343 95.496 159.343 94.992C159.343 94.824 159.427 94.7399 159.596 94.7399L159.343 93.4799V89.9517C159.343 88.9017 156.647 82.2654 151.255 70.0429H151.002V70.2949C151.507 71.2189 152.35 73.403 153.529 76.8472L153.024 77.0992C150.665 71.471 149.485 68.4468 149.485 68.0268C149.822 67.8588 150.075 67.7748 150.243 67.7748V66.7668H149.232L149.485 67.2708V67.5228H148.98C148.98 66.5987 147.21 62.2306 143.671 54.4182L142.913 52.6542V51.8981C142.071 51.1421 141.649 50.4701 141.649 49.882H141.902L141.649 49.378V48.118H141.144C141.144 48.454 141.228 48.622 141.396 48.622L141.144 50.3861V54.4182C141.144 54.5862 141.059 54.6702 140.891 54.6702C141.059 55.0063 141.144 55.3423 141.144 55.6783C141.144 55.8043 140.891 56.0563 140.385 56.4343C140.554 56.9383 140.722 57.1903 140.891 57.1903L140.638 58.9544V62.7346H139.88V61.7265H139.627C139.627 62.3986 139.459 62.7346 139.122 62.7346V93.2279C139.122 93.5639 138.953 93.7319 138.616 93.7319H128.505C128 93.7319 127.747 90.1197 127.747 82.8954L127.494 80.8794H127.747C127.578 80.5433 127.494 80.2913 127.494 80.1233C127.494 79.9553 127.578 79.8713 127.747 79.8713L127.494 78.6113V72.815L127.241 71.0509H127.494L127.241 70.5469C127.241 70.3789 127.326 70.2949 127.494 70.2949L127.241 69.7909C127.241 69.6229 127.326 69.5389 127.494 69.5389L127.241 69.0349C127.241 68.6988 127.326 68.5308 127.494 68.5308C127.494 68.3628 127.41 68.2788 127.241 68.2788V64.7507H126.989V75.0831H126.23V58.4504L126.483 55.9303C126.314 55.9303 126.23 55.8463 126.23 55.6783L126.736 55.4263L126.483 54.1662V52.1501L126.23 51.6461C126.399 51.6461 126.483 51.5621 126.483 51.3941C126.146 51.3941 125.977 51.2261 125.977 50.8901C125.977 50.3861 126.062 50.134 126.23 50.134L125.977 49.63V47.6139H126.483V47.1099C125.977 47.1099 125.725 46.9419 125.725 46.6059C125.725 44.9258 125.893 44.0858 126.23 44.0858C126.062 43.7078 125.893 42.9517 125.725 41.8177C125.893 41.6077 125.977 41.1877 125.977 40.5576H125.725V39.0456C125.725 38.8776 125.809 38.7936 125.977 38.7936L125.725 38.2895V37.5335C125.725 37.3655 125.809 37.2815 125.977 37.2815C125.977 37.1135 125.893 37.0295 125.725 37.0295L126.483 34.2574L125.977 34.5094H125.725V19.3887C125.725 19.2207 125.809 19.1367 125.977 19.1367L125.725 18.6327C125.725 13.4245 125.64 10.3164 125.472 9.30831C125.64 8.30027 125.809 7.79625 125.977 7.79625L125.725 6.53619C125.725 3.84808 125.977 2.50402 126.483 2.50402C127.494 3.68007 128 4.77212 128 5.78016H128.758V5.52815C128.252 4.73012 127.831 3.80608 127.494 2.75603L128 2.50402C128.969 2.50402 129.895 2.58803 130.78 2.75603L131.791 2.50402L133.055 2.75603L135.077 2.25201C135.751 2.37802 136.088 2.54602 136.088 2.75603C138.11 2.58803 139.29 2.33601 139.627 2H139.88C140.891 2.58802 141.396 3.00804 141.396 3.26005C141.059 3.42806 140.807 3.51206 140.638 3.51206V4.01609H141.144V4.77212L140.891 5.27614C141.228 5.44415 141.481 5.52815 141.649 5.52815L141.144 6.28418C142.028 6.28418 143.545 9.30831 145.694 15.3566L145.441 16.8686L145.946 16.6166C146.41 16.6166 146.915 17.7927 147.463 20.1448C146.789 20.3968 146.452 20.6488 146.452 20.9008V21.4048C146.957 21.4048 147.21 21.0688 147.21 20.3968C147.547 20.3968 148.727 22.7489 150.749 27.4531C150.917 27.4531 151.002 27.5371 151.002 27.7051C151.002 27.8731 150.917 27.9571 150.749 27.9571C151.592 29.4272 152.013 30.2672 152.013 30.4772C151.844 30.7712 151.76 31.1912 151.76 31.7373C152.392 31.7373 153.487 34.1734 155.046 39.0456C156.731 42.6157 157.742 45.3038 158.079 47.1099H157.827L158.838 49.378H159.343C159.343 48.706 159.596 48.37 160.101 48.37V48.118L159.343 46.6059L159.596 46.1019C159.596 45.9339 159.512 45.8499 159.343 45.8499C159.512 41.9857 159.933 40.0536 160.607 40.0536L161.113 40.3056C161.113 39.8856 160.86 39.5496 160.354 39.2976V39.8016H159.849V37.0295H160.354V32.9973H160.86V36.5255H161.113C161.113 35.0134 161.197 34.2574 161.365 34.2574C161.365 34.0894 161.281 34.0054 161.113 34.0054C161.281 31.4853 161.365 28.5451 161.365 25.185L161.871 24.429C161.534 24.429 161.365 24.2609 161.365 23.9249V22.4129H161.871V21.9088H161.365C161.365 19.5567 161.45 18.3807 161.618 18.3807L161.365 17.1206V12.8365C161.365 12.4584 161.45 12.1224 161.618 11.8284C161.45 11.5344 161.365 11.1984 161.365 10.8204V8.04826L161.871 7.29222C161.534 7.29222 161.365 7.12422 161.365 6.7882V5.02413C161.407 4.68811 161.576 4.52011 161.871 4.52011H163.388C163.725 4.52011 163.893 5.02413 163.893 6.03217H164.146C164.146 5.02413 164.82 4.52011 166.168 4.52011L167.179 4.77212C167.474 4.60411 167.811 4.52011 168.19 4.52011L168.696 4.77212C169.538 4.60411 170.381 4.52011 171.223 4.52011C171.729 4.52011 171.982 4.85612 171.982 5.52815L172.487 5.27614H172.74C172.909 12.2484 172.993 17.9607 172.993 22.4129C172.993 22.5809 172.909 22.6649 172.74 22.6649L172.993 23.1689C172.993 24.0509 173.077 25.479 173.246 27.4531C172.909 27.4951 172.74 27.6631 172.74 27.9571C173.077 28.3351 173.246 29.3432 173.246 30.9812H173.498C173.498 29.4692 173.583 28.4611 173.751 27.9571C173.583 27.6631 173.498 27.3271 173.498 26.9491L174.004 26.6971H174.257V35.5174C174.257 35.6854 174.172 35.7694 174.004 35.7694L174.257 36.2735V38.7936H173.751V39.2976H174.257V43.5818L174.509 46.1019H174.257L174.509 46.6059C174.509 49.21 174.594 51.3101 174.762 52.9062C174.594 53.7882 174.509 55.3843 174.509 57.6944H175.015V58.4504H174.509V61.7265H175.015V63.2386H174.509V63.9946H175.015V70.5469C175.015 71.3449 174.931 72.185 174.762 73.067C174.931 73.6971 175.015 74.6211 175.015 75.8391L174.509 76.5952L175.015 77.3512V79.8713L174.762 81.3834C174.762 81.5514 174.846 81.6354 175.015 81.6354L174.762 82.8954V89.6997L174.509 91.2118C174.678 91.5058 174.762 92.2618 174.762 93.4799C174.762 93.6479 174.678 93.7319 174.509 93.7319L174.762 94.2359V95.496L172.993 95.748H167.179L165.662 96ZM130.527 4.01609C130.527 3.84808 130.612 3.59607 130.78 3.26005V3.00804H130.527C130.527 3.17605 130.443 3.42806 130.275 3.76408V4.01609H130.527ZM131.538 4.77212V4.01609H131.286V4.77212H131.538ZM140.385 4.77212V4.2681H140.133V4.77212H140.385ZM133.055 5.27614V5.02413H132.549V5.27614H133.055ZM170.212 6.53619C170.549 6.36819 170.802 6.28418 170.971 6.28418C170.971 5.94817 170.802 5.78016 170.465 5.78016L170.212 6.28418V6.53619ZM169.454 7.04021C169.454 6.7882 169.623 6.45219 169.96 6.03217H169.707C169.412 6.20018 169.075 6.28418 168.696 6.28418C168.696 6.53619 168.948 6.7882 169.454 7.04021ZM132.044 12.3324L132.297 11.0724C131.96 11.0724 131.201 9.64433 130.022 6.7882H129.769V7.29222C129.432 7.29222 129.263 6.95621 129.263 6.28418H128.758V7.04021C129.221 7.04021 129.558 7.54424 129.769 8.55228H130.022V8.04826C129.853 7.71224 129.769 7.46023 129.769 7.29222C130.022 7.29222 130.275 7.62824 130.527 8.30027L130.275 9.81233C131.117 10.9884 131.707 11.5764 132.044 11.5764L131.791 12.0804V12.3324H132.044ZM131.791 7.04021V6.53619H131.538V7.04021H131.791ZM141.396 7.04021V6.7882H140.891V7.04021H141.396ZM164.146 8.04826V7.54424H163.893V8.04826H164.146ZM140.385 8.80429C140.385 8.46828 140.554 8.30027 140.891 8.30027C140.891 7.96425 140.722 7.79625 140.385 7.79625C140.385 7.96425 140.301 8.21626 140.133 8.55228V8.80429H140.385ZM167.937 8.04826V7.79625H167.432V8.04826H167.937ZM138.869 8.55228V8.04826H138.616V8.55228H138.869ZM142.155 8.55228V8.04826H141.902V8.55228H142.155ZM128 9.0563V8.55228H127.747V9.0563H128ZM133.813 9.56032C133.645 9.22431 133.561 8.9723 133.561 8.80429H133.308V9.56032H133.813ZM136.088 9.81233C136.636 9.47632 137.479 9.30831 138.616 9.30831L138.363 8.80429L137.858 9.0563C137.689 9.0563 137.605 8.9723 137.605 8.80429C136.931 9.1403 136.425 9.30831 136.088 9.30831V9.81233ZM139.374 9.30831V8.80429H139.122V9.30831H139.374ZM141.902 9.30831L142.155 8.80429H141.396C141.439 9.1403 141.607 9.30831 141.902 9.30831ZM132.802 9.56032V9.0563C132.465 9.0983 132.297 9.26631 132.297 9.56032H132.802ZM134.824 9.56032V9.0563H134.572V9.56032H134.824ZM140.385 9.81233V9.56032C140.385 9.22431 140.133 9.0563 139.627 9.0563C139.796 9.39231 139.88 9.64433 139.88 9.81233H140.385ZM165.41 9.56032V9.0563H165.157V9.56032H165.41ZM168.696 10.0643V9.0563H168.443V10.0643H168.696ZM141.144 9.81233V9.30831H140.638C140.68 9.64433 140.849 9.81233 141.144 9.81233ZM163.893 10.0643V9.30831H163.64V10.0643H163.893ZM142.66 10.3164V9.56032H142.408V10.3164H142.66ZM129.011 10.0643V9.81233H128.505V10.0643H129.011ZM132.802 10.8204C133.139 10.8204 133.308 10.6524 133.308 10.3164H132.802V10.8204ZM137.858 11.5764C137.689 11.2824 137.605 10.9464 137.605 10.5684H137.352V11.5764H137.858ZM141.649 11.0724C141.986 11.0724 142.155 10.9044 142.155 10.5684H141.649V11.0724ZM126.736 11.3244V10.8204H126.483V11.3244H126.736ZM163.64 11.3244V10.8204H163.388V11.3244H163.64ZM133.055 11.8284C133.055 11.6604 133.139 11.4084 133.308 11.0724H132.802V11.8284H133.055ZM141.144 12.5844C141.565 11.9124 141.902 11.5764 142.155 11.5764V11.3244H141.649C141.312 11.8704 141.144 12.2904 141.144 12.5844ZM137.858 13.0885C137.858 12.9205 137.942 12.6685 138.11 12.3324L137.605 12.0804V13.0885H137.858ZM133.055 13.8445L133.308 13.3405C133.139 13.0045 133.055 12.7525 133.055 12.5844H132.802C132.802 12.9625 132.718 13.2985 132.549 13.5925L133.055 13.8445ZM163.135 14.0965C163.303 13.2565 163.388 12.7525 163.388 12.5844H162.882V14.0965H163.135ZM132.297 13.3405V12.8365H132.044V13.3405H132.297ZM166.674 13.5925C167.011 13.5925 167.179 13.4245 167.179 13.0885H166.674V13.5925ZM141.144 13.8445V13.3405H140.638V13.8445H141.144ZM130.275 14.3485V13.8445C129.938 13.8865 129.769 14.0545 129.769 14.3485H130.275ZM132.044 14.3485V13.8445H131.538V14.3485H132.044ZM133.813 14.8525V14.6005C133.645 14.2645 133.561 14.0125 133.561 13.8445H133.308V14.8525H133.813ZM131.033 14.6005V14.0965C130.696 14.1385 130.527 14.3065 130.527 14.6005H131.033ZM140.638 15.1046V14.6005H140.385V15.1046H140.638ZM167.937 15.6086C167.937 15.2726 167.769 15.1046 167.432 15.1046V15.6086H167.937ZM134.572 15.8606V15.3566H133.813C133.855 15.6926 134.108 15.8606 134.572 15.8606ZM138.11 15.8606V15.3566H137.858V15.8606H138.11ZM140.133 16.3646V15.3566H139.88V16.3646H140.133ZM135.836 17.3727C135.33 16.8266 135.077 16.3226 135.077 15.8606L134.572 16.1126C134.74 16.9526 135.161 17.3727 135.836 17.3727ZM144.43 16.8686V16.6166H143.924V16.8686H144.43ZM128 17.1206V16.8686H127.494V17.1206H128ZM141.902 17.3727V16.8686H141.649V17.3727H141.902ZM162.882 17.6247V17.1206H162.376V17.6247H162.882ZM130.78 17.8767C131.117 17.8767 131.286 17.7087 131.286 17.3727H130.78V17.8767ZM145.694 18.1287V17.3727H145.441V18.1287H145.694ZM137.605 22.1609V21.9088C137.352 19.3467 136.594 18.0027 135.33 17.8767C135.33 18.2547 135.835 19.0107 136.847 20.1448C136.847 20.3128 136.762 20.3968 136.594 20.3968C137.099 21.4048 137.352 21.9929 137.352 22.1609H137.605ZM138.616 18.8847V17.8767H138.11L138.363 18.3807L138.11 18.8847H138.616ZM168.696 18.3807L168.948 17.8767H167.685V18.1287C168.064 18.1287 168.401 18.2127 168.696 18.3807ZM137.858 19.8928V19.3887H137.605V19.8928H137.858ZM143.924 19.8928C144.261 19.8928 144.43 19.7248 144.43 19.3887H143.924V19.8928ZM139.374 20.6488V20.1448H139.122V20.6488H139.374ZM138.869 21.1528C138.869 20.6488 138.7 20.3968 138.363 20.3968C138.363 20.9008 138.532 21.1528 138.869 21.1528ZM145.946 21.9088V21.1528H145.694V21.9088H145.946ZM138.869 22.1609C139.206 22.1609 139.374 21.9928 139.374 21.6568L138.869 21.4048V22.1609ZM143.671 21.9088V21.4048H143.419V21.9088H143.671ZM138.363 22.4129V21.9088H138.11V22.4129H138.363ZM138.363 23.4209C138.7 23.4209 138.869 23.1689 138.869 22.6649C138.363 22.6649 138.11 22.9169 138.11 23.4209H138.363ZM139.374 23.9249V23.4209H139.122V23.9249H139.374ZM147.716 23.9249V23.4209H147.463V23.9249H147.716ZM129.516 23.9249V23.6729H129.011V23.9249H129.516ZM137.352 25.185V24.933L137.099 24.429L137.352 23.9249V23.6729H137.099L136.847 24.933L137.352 25.185ZM146.199 23.9249V23.6729H145.694V23.9249H146.199ZM141.649 27.2011V26.9491C140.638 25.899 140.133 25.227 140.133 24.933C139.964 24.597 139.88 24.3449 139.88 24.1769L139.374 24.429C139.374 24.2609 139.29 24.1769 139.122 24.1769V24.681C139.416 24.681 139.922 25.353 140.638 26.6971L141.649 27.2011ZM128.252 25.185V24.933H127.747V25.185H128.252ZM167.937 25.437V24.933H167.685V25.437H167.937ZM132.802 25.941V25.437H132.549V25.941H132.802ZM137.352 26.445C137.352 25.941 137.184 25.689 136.847 25.689H136.341V26.193L137.352 26.445ZM141.902 26.445V25.941H141.649V26.445H141.902ZM128 26.9491C128.337 26.9491 128.505 26.6971 128.505 26.193C128.168 26.235 128 26.487 128 26.9491ZM144.682 29.2172C143.503 27.3691 142.829 26.445 142.66 26.445V27.2011C143.082 27.2011 143.503 27.7891 143.924 28.9651C144.261 29.1332 144.514 29.2172 144.682 29.2172ZM162.376 26.6971V26.445H161.871V26.6971H162.376ZM138.11 27.7051V27.2011C138.11 26.8651 137.942 26.6971 137.605 26.6971C137.605 26.8651 137.521 26.9491 137.352 26.9491C137.521 27.2851 137.605 27.5371 137.605 27.7051H138.11ZM167.937 27.4531C167.937 26.9491 167.769 26.6971 167.432 26.6971C167.432 27.2011 167.6 27.4531 167.937 27.4531ZM134.824 27.7051C135.161 27.7051 135.33 27.4531 135.33 26.9491C134.993 26.9911 134.824 27.2431 134.824 27.7051ZM144.43 27.4531V26.9491H143.924C143.966 27.2851 144.135 27.4531 144.43 27.4531ZM142.408 28.7131C142.408 28.0831 142.071 27.6631 141.396 27.4531V28.2091C141.649 28.2091 141.986 28.3771 142.408 28.7131ZM128 28.4611V27.7051H127.747V28.4611H128ZM134.824 30.2252C135.035 30.2252 135.372 29.5532 135.836 28.2091V27.9571C135.456 27.9571 135.119 28.7131 134.824 30.2252ZM169.201 28.4611V27.9571H168.948V28.4611H169.201ZM139.627 28.7131V28.2091H139.374V28.7131H139.627ZM134.572 28.9651V28.4611H134.319V28.9651H134.572ZM142.66 30.2252C142.702 29.8892 142.871 29.7212 143.166 29.7212C142.997 29.3852 142.913 29.0492 142.913 28.7131H143.419V28.4611H142.913L142.408 29.2172C142.576 29.5532 142.66 29.8052 142.66 29.9732C142.492 29.9732 142.408 30.0572 142.408 30.2252H142.66ZM148.98 28.7131V28.4611H148.474V28.7131H148.98ZM128 29.2172V28.7131H127.747V29.2172H128ZM162.376 31.2332V29.9732H161.871L162.124 31.2332H162.376ZM160.607 32.2413C160.27 32.2413 160.101 32.0733 160.101 31.7373V29.9732H160.607C160.607 30.3092 160.523 30.4772 160.354 30.4772L160.607 30.9812V32.2413ZM172.487 30.7292V30.2252H172.234V30.7292H172.487ZM133.308 34.2574C133.982 33.9214 134.319 33.6693 134.319 33.5013L135.33 33.7534C136.804 33.5853 137.731 33.5013 138.11 33.5013L139.374 33.7534C139.374 33.2493 138.447 32.9133 136.594 32.7453L135.583 32.9973L135.077 32.7453C134.782 32.9133 134.445 32.9973 134.066 32.9973V32.7453C134.572 31.7793 134.824 31.0232 134.824 30.4772H134.572C134.066 31.7793 133.813 32.7033 133.813 33.2493H133.561L133.055 32.9973V33.5013C133.224 33.8374 133.308 34.0894 133.308 34.2574ZM144.177 31.7373C143.84 30.9812 143.503 30.5612 143.166 30.4772V30.9812C143.166 31.2332 143.419 31.4853 143.924 31.7373H144.177ZM170.212 30.9812V30.4772H169.96V30.9812H170.212ZM172.234 31.2332C172.234 30.9812 171.982 30.7292 171.476 30.4772V31.2332H172.234ZM126.989 31.9893C127.326 31.9893 127.494 31.8213 127.494 31.4853C127.326 31.1492 127.241 30.8972 127.241 30.7292H126.989V31.9893ZM170.718 31.9893L171.223 31.7373C171.055 31.4433 170.971 31.1072 170.971 30.7292L170.465 30.9812C170.634 31.2752 170.718 31.6113 170.718 31.9893ZM128.252 31.4853V30.9812H127.747V31.4853H128.252ZM147.463 33.5013V33.2493C146.873 32.2413 146.452 31.7373 146.199 31.7373V32.2413C146.199 32.4513 146.62 32.8713 147.463 33.5013ZM167.432 31.9893V31.7373H166.926V31.9893H167.432ZM146.199 35.5174C146.073 34.5094 145.651 34.0054 144.935 34.0054C144.935 33.5013 145.02 33.2493 145.188 33.2493C144.682 32.6193 144.43 32.1993 144.43 31.9893H143.671V32.7453L141.902 32.4933C140.385 32.6193 139.627 32.8713 139.627 33.2493C140.849 33.2493 141.607 33.1653 141.902 32.9973L143.166 33.5013C143.208 33.1653 143.376 32.9973 143.671 32.9973L145.946 35.5174H146.199ZM151.507 33.2493C151.676 32.5773 151.76 32.1573 151.76 31.9893H151.507C151.339 32.6613 151.255 33.0813 151.255 33.2493H151.507ZM169.707 35.0134C169.96 35.0134 170.212 34.7614 170.465 34.2574V33.7534L169.96 32.9973C170.465 32.9973 170.718 32.7453 170.718 32.2413C170.212 32.2413 169.791 32.9133 169.454 34.2574C169.623 34.5934 169.707 34.8454 169.707 35.0134ZM146.452 33.2493C146.452 32.9133 146.283 32.7453 145.946 32.7453H145.441C145.483 33.0813 145.651 33.2493 145.946 33.2493H146.452ZM127.241 34.5094C127.368 34.5094 127.62 34.2574 128 33.7534L128.505 34.0054C128.842 33.8374 129.095 33.7534 129.263 33.7534C129.306 34.0894 129.474 34.2574 129.769 34.2574C130.317 33.9214 130.738 33.7534 131.033 33.7534C131.033 33.9214 131.117 34.0054 131.286 34.0054C131.286 33.5853 130.949 33.2493 130.275 32.9973C130.275 33.3333 130.19 33.5013 130.022 33.5013L129.516 33.2493L129.011 33.5013L128.505 33.2493L126.989 33.5013C126.989 33.1653 126.82 32.9973 126.483 32.9973V33.2493C126.989 33.7954 127.241 34.2154 127.241 34.5094ZM132.044 33.5013V32.9973H131.538V33.5013H132.044ZM132.549 33.7534V33.2493H132.297V33.7534H132.549ZM148.474 34.2574C148.474 33.9214 148.306 33.7534 147.968 33.7534V34.2574H148.474ZM151.002 35.2654V34.2574H150.749V35.2654H151.002ZM168.443 35.5174C168.78 35.5174 168.948 35.3494 168.948 35.0134L168.443 34.7614V35.5174ZM132.802 36.5255C132.802 36.0634 132.971 35.5594 133.308 35.0134H132.802C132.634 35.8534 132.549 36.3575 132.549 36.5255H132.802ZM148.727 35.5174V35.0134H148.474V35.5174H148.727ZM127.747 36.0214V35.7694H127.241V36.0214H127.747ZM147.463 38.7936C147.463 38.4155 147.547 38.0795 147.716 37.7855C147.042 37.4915 146.705 36.9035 146.705 36.0214H146.452L146.199 37.0295C146.663 37.0295 147 37.6175 147.21 38.7936H147.463ZM149.738 36.7775V36.0214C149.401 36.0634 149.232 36.2315 149.232 36.5255L149.738 36.7775ZM150.496 36.5255V36.0214H150.243V36.5255H150.496ZM173.751 37.0295V36.0214L173.246 36.2735C173.414 36.6095 173.498 36.8615 173.498 37.0295H173.751ZM138.363 37.7855C138.363 37.0295 138.447 36.5255 138.616 36.2735C138.11 36.2735 137.858 36.4415 137.858 36.7775C137.858 37.4495 138.026 37.7855 138.363 37.7855ZM140.385 36.7775V36.2735H140.133V36.7775H140.385ZM167.685 37.7855C167.685 37.2815 168.022 37.0295 168.696 37.0295C168.696 36.5255 168.527 36.2735 168.19 36.2735C168.19 36.6095 168.022 36.7775 167.685 36.7775L167.179 36.5255C167.179 36.9035 167.095 37.2395 166.926 37.5335L167.432 37.7855H167.685ZM150.496 38.0375C150.496 37.6175 150.243 37.2815 149.738 37.0295C149.738 37.4495 149.991 37.7855 150.496 38.0375ZM132.297 37.7855V37.2815H132.044V37.7855H132.297ZM148.98 37.7855V37.2815H148.474C148.516 37.6175 148.685 37.7855 148.98 37.7855ZM137.099 38.0375V37.7855H136.594V38.0375H137.099ZM131.538 38.7936C131.875 38.7936 132.044 38.6256 132.044 38.2895L131.538 38.0375V38.7936ZM164.651 38.5416C164.988 38.3735 165.241 38.2895 165.41 38.2895V38.0375H164.904L164.651 38.5416ZM167.179 38.7936C167.516 38.7936 167.685 38.6256 167.685 38.2895L167.179 38.0375L166.926 38.5416V38.7936H167.179ZM148.221 38.5416V38.2895H147.716V38.5416H148.221ZM151.255 39.2976C151.592 39.1296 151.844 39.0456 152.013 39.0456C152.013 38.7516 151.592 38.4996 150.749 38.2895V38.5416L151.255 39.2976ZM161.871 39.5496C162.882 39.3396 163.388 39.0036 163.388 38.5416C162.545 39.0456 161.955 39.2976 161.618 39.2976V39.5496H161.871ZM133.561 39.2976V38.7936H133.308V39.2976H133.561ZM147.968 39.5496V39.0456H147.716V39.5496H147.968ZM131.033 41.0617L131.538 39.2976C131.328 39.2976 130.991 39.8016 130.527 40.8097L131.033 41.0617ZM166.421 41.3137C166.674 41.3137 167.011 40.9777 167.432 40.3056C167.263 40.0116 167.179 39.6756 167.179 39.2976C166.884 39.4656 166.547 39.5496 166.168 39.5496C166.168 39.9276 166.252 40.2636 166.421 40.5576C166.252 40.8937 166.168 41.1457 166.168 41.3137H166.421ZM149.232 42.0697C149.569 42.0697 149.738 41.9017 149.738 41.5657C149.738 40.8517 149.317 40.1796 148.474 39.5496L148.221 40.0536V40.3056C148.727 40.9357 148.98 41.5237 148.98 42.0697H149.232ZM140.891 40.5576V40.0536H140.638V40.5576H140.891ZM152.266 40.5576V40.0536H152.013V40.5576H152.266ZM133.561 40.8097V40.3056H133.308V40.8097H133.561ZM145.694 40.8097V40.3056H145.441V40.8097H145.694ZM153.529 42.5737V42.3217C153.024 41.5237 152.771 41.0197 152.771 40.8097H152.266C152.855 41.9857 153.277 42.5737 153.529 42.5737ZM165.41 41.8177C165.747 41.8177 165.915 41.6497 165.915 41.3137C165.915 40.9777 165.747 40.8097 165.41 40.8097C165.41 40.9777 165.325 41.0617 165.157 41.0617C165.157 40.8937 165.073 40.8097 164.904 40.8097V41.0617C165.073 41.3977 165.157 41.6497 165.157 41.8177H165.41ZM139.627 41.5657V41.0617H139.374V41.5657H139.627ZM129.516 43.5818C129.727 43.5818 130.148 42.9097 130.78 41.5657V41.3137H130.275C130.275 41.9437 130.022 42.6157 129.516 43.3298V43.5818ZM138.869 41.8177V41.5657H138.363V41.8177H138.869ZM136.088 42.5737V41.8177H135.583C135.751 42.1537 135.836 42.4057 135.836 42.5737H136.088ZM149.485 43.0777C149.822 42.9097 150.075 42.8257 150.243 42.8257V42.0697C149.569 42.3217 149.232 42.5737 149.232 42.8257C149.401 42.8257 149.485 42.9097 149.485 43.0777ZM165.157 43.3298L165.662 43.0777C165.494 42.7417 165.41 42.4897 165.41 42.3217L164.904 42.5737C165.073 42.9097 165.157 43.1618 165.157 43.3298ZM135.836 50.3861C136.341 50.2181 136.594 49.714 136.594 48.874C136.425 48.874 136.341 48.79 136.341 48.622H136.594C136.889 48.79 137.226 48.874 137.605 48.874L137.858 48.37L137.605 47.866L138.11 47.6139C138.11 47.7819 138.195 47.866 138.363 47.866C139.206 46.8579 139.627 45.5139 139.627 43.8338C140.006 43.8338 140.343 43.7498 140.638 43.5818C140.807 43.9178 140.891 44.1698 140.891 44.3378H141.144V42.8257L140.638 43.0777L139.88 42.5737C139.88 43.2458 139.627 43.5818 139.122 43.5818C138.784 43.4138 138.532 43.3298 138.363 43.3298L138.616 43.8338C137.773 44.0438 137.352 44.3798 137.352 44.8418H137.858L138.616 44.3378L138.869 44.8418C138.026 44.8418 137.352 45.6819 136.847 47.3619C136.594 47.3619 135.751 48.034 134.319 49.378L135.583 50.3861H135.836ZM161.365 42.8257V42.5737H160.86V42.8257H161.365ZM163.64 44.8418C164.314 44.5478 164.651 43.7918 164.651 42.5737H164.399L163.893 42.8257C163.893 42.6577 163.809 42.5737 163.64 42.5737C163.64 42.7417 163.556 42.9937 163.388 43.3298L163.893 43.0777H164.146V43.5818L163.64 44.3378V44.8418ZM143.671 43.5818V42.8257H143.419V43.5818H143.671ZM151.507 43.3298V42.8257H151.255V43.3298H151.507ZM150.496 43.5818V43.0777H150.243V43.5818H150.496ZM129.011 43.5818V43.3298H128.505V43.5818H129.011ZM154.541 43.8338C154.541 43.4978 154.372 43.3298 154.035 43.3298V43.8338H154.541ZM128.505 46.1019C128.842 46.1019 129.179 45.4298 129.516 44.0858V43.8338H129.263L128.505 46.1019ZM148.474 44.3378C148.811 44.1698 149.064 44.0858 149.232 44.0858V43.8338H148.474V44.3378ZM153.529 48.622V48.118C152.392 46.6059 151.718 45.8499 151.507 45.8499V45.5979L151.76 45.0938C151.339 44.7578 151.002 44.5898 150.749 44.5898L151.002 44.0858C150.665 43.9178 150.328 43.8338 149.991 43.8338C150.917 45.4298 151.929 46.8579 153.024 48.118C153.192 48.118 153.277 48.286 153.277 48.622H153.529ZM167.685 44.5898V44.0858H167.432V44.5898H167.685ZM156.31 44.8418C156.647 44.8418 156.815 44.6738 156.815 44.3378H156.31V44.8418ZM140.385 45.3458V44.8418H140.133V45.3458H140.385ZM134.824 45.5979V45.0938H134.319V45.5979H134.824ZM161.618 45.3458V45.0938H161.113V45.3458H161.618ZM159.849 46.8579C160.017 46.8579 160.439 46.4379 161.113 45.5979C160.691 45.5979 160.27 45.9339 159.849 46.6059V46.8579ZM163.64 46.3539V45.8499H163.388V46.3539H163.64ZM149.485 46.3539V46.1019H148.98V46.3539H149.485ZM128.758 46.6059V46.3539H128.252V46.6059H128.758ZM162.376 47.1099C162.713 47.1099 162.882 46.8579 162.882 46.3539C162.545 46.3959 162.376 46.6479 162.376 47.1099ZM156.563 47.1099V46.6059H156.31V47.1099H156.563ZM170.465 47.1099V46.6059H170.212V47.1099H170.465ZM173.751 47.1099V46.6059H173.498V47.1099H173.751ZM141.649 47.3619V46.8579H141.396V47.3619H141.649ZM142.408 47.3619V46.8579H142.155V47.3619H142.408ZM144.43 47.1099V46.8579H143.924V47.1099H144.43ZM131.791 47.6139V47.1099H131.538V47.6139H131.791ZM139.374 47.6139V47.1099H139.122V47.6139H139.374ZM161.365 47.6139V47.1099C161.028 47.1519 160.86 47.3199 160.86 47.6139H161.365ZM169.96 47.866V47.3619H169.707V47.866H169.96ZM134.066 47.866V47.6139H133.561V47.866H134.066ZM155.552 49.882L156.057 49.63L155.804 49.126L156.057 47.866L155.552 47.6139H155.299C155.299 48.37 155.383 49.126 155.552 49.882ZM155.046 48.118V47.866H154.541V48.118H155.046ZM154.288 49.63C154.119 49.336 154.035 49 154.035 48.622H153.782V49.63H154.288ZM157.827 49.63L158.332 49.378C158.164 49.042 158.079 48.79 158.079 48.622H157.827V49.63ZM137.099 49.63C137.436 49.63 137.605 49.462 137.605 49.126H137.099V49.63ZM170.465 49.63V49.378H169.96V49.63H170.465ZM137.352 50.3861V49.882C137.015 49.924 136.847 50.092 136.847 50.3861H137.352ZM154.035 50.6381C154.372 50.6381 154.541 50.3861 154.541 49.882C154.204 49.924 154.035 50.176 154.035 50.6381ZM131.791 55.9303C133.645 55.2583 134.572 54.5022 134.572 53.6622H134.824L135.33 53.9142V53.1582L134.824 53.4102C134.824 53.0742 134.572 52.9062 134.066 52.9062V52.4021C134.614 52.4021 135.035 52.2341 135.33 51.8981L135.077 51.3941V51.1421L135.33 50.6381L133.813 50.134C133.308 50.7641 133.055 51.2681 133.055 51.6461C133.224 51.6461 133.308 51.7301 133.308 51.8981L132.044 54.1662C131.749 54.3342 131.412 54.4182 131.033 54.4182V54.6702L132.044 54.9223C131.875 55.2583 131.791 55.5943 131.791 55.9303ZM140.638 51.1421V50.6381H140.385V51.1421H140.638ZM163.388 51.3941C163.725 51.2261 163.977 51.1421 164.146 51.1421C164.146 50.8061 163.977 50.6381 163.64 50.6381L163.388 51.1421V51.3941ZM168.948 51.1421V50.6381H168.443V51.1421H168.948ZM155.046 51.3941V50.8901H154.793V51.3941H155.046ZM149.232 52.9062V52.4021C149.232 52.0661 148.98 51.8981 148.474 51.8981C148.643 52.1921 148.727 52.5281 148.727 52.9062H149.232ZM160.354 52.6542C160.354 52.1501 160.186 51.8981 159.849 51.8981C159.849 52.4021 160.017 52.6542 160.354 52.6542ZM162.376 52.4021V51.8981H162.124V52.4021H162.376ZM156.31 53.6622C156.647 53.6622 156.815 53.4942 156.815 53.1582C156.647 52.8222 156.563 52.5702 156.563 52.4021H156.057V53.6622H156.31ZM173.751 53.6622V53.1582H173.246C173.288 53.4942 173.456 53.6622 173.751 53.6622ZM153.782 53.9142V53.4102C153.445 53.4522 153.277 53.6202 153.277 53.9142H153.782ZM167.432 53.6622V53.4102H166.926V53.6622H167.432ZM133.308 53.9142H133.055C133.097 53.5782 133.35 53.4102 133.813 53.4102C133.813 53.7462 133.645 53.9142 133.308 53.9142ZM148.98 54.1662V53.6622H148.727V54.1662H148.98ZM157.068 54.4182V53.6622H156.815V54.4182H157.068ZM150.243 54.4182V54.1662H149.738V54.4182H150.243ZM166.674 55.1743C166.674 55.0063 166.758 54.7542 166.926 54.4182L166.421 54.1662V55.1743H166.674ZM146.957 54.9223V54.4182H146.705V54.9223H146.957ZM160.354 60.9705C160.354 60.2565 159.849 59.0804 158.838 57.4424C159.006 57.4424 159.09 57.3584 159.09 57.1903L157.574 54.6702L157.321 55.1743L158.079 56.4343L157.827 56.9383C158.206 56.9803 158.711 57.7364 159.343 59.2064C159.175 59.5424 159.09 59.7945 159.09 59.9625C159.764 60.2565 160.101 60.5925 160.101 60.9705H160.354ZM129.516 55.6783V55.1743H129.263V55.6783H129.516ZM135.33 55.9303V55.4263H135.077V55.9303H135.33ZM148.474 55.9303V55.4263H148.221V55.9303H148.474ZM145.188 55.9303V55.6783H144.682V55.9303H145.188ZM161.618 56.6863V56.1823C161.281 56.2243 161.113 56.3923 161.113 56.6863H161.618ZM165.662 57.1903V56.6863H165.41V57.1903H165.662ZM133.308 57.9464C133.308 57.4424 133.139 57.1903 132.802 57.1903C132.802 57.6944 132.971 57.9464 133.308 57.9464ZM153.024 57.6944V57.1903H152.771V57.6944H153.024ZM151.507 57.6944V57.4424H151.002V57.6944H151.507ZM148.221 58.1984V57.6944H147.968V58.1984H148.221ZM156.815 58.7024C156.815 58.5344 156.9 58.2824 157.068 57.9464H156.563V58.7024H156.815ZM162.882 58.4504V57.9464H162.629V58.4504H162.882ZM172.74 58.7024V58.1984H172.234V58.7024H172.74ZM139.88 59.4584V58.9544H139.627V59.4584H139.88ZM151.507 59.9625V58.9544H151.255V59.9625H151.507ZM138.616 59.9625V59.4584C138.279 59.5004 138.11 59.6685 138.11 59.9625H138.616ZM162.629 60.2145C162.966 60.2145 163.135 59.9625 163.135 59.4584C162.798 59.5004 162.629 59.7525 162.629 60.2145ZM164.399 59.9625C164.736 59.9625 164.904 59.7945 164.904 59.4584H164.399V59.9625ZM158.838 60.2145V59.9625H158.332V60.2145H158.838ZM165.915 60.4665V59.9625H165.662V60.4665H165.915ZM170.718 60.4665C170.718 60.1305 170.549 59.9625 170.212 59.9625H169.707V60.4665H170.718ZM160.354 61.9785C160.691 61.9785 160.86 61.6425 160.86 60.9705H160.607L160.354 61.9785ZM171.223 61.7265V61.2225H170.718V61.7265H171.223ZM135.33 61.9785C135.667 61.9785 135.836 61.8105 135.836 61.4745H135.33V61.9785ZM171.729 61.9785V61.4745H171.476V61.9785H171.729ZM136.594 62.7346C136.594 62.2306 136.425 61.9785 136.088 61.9785C136.088 62.4826 136.257 62.7346 136.594 62.7346ZM136.847 62.4826C137.184 62.4826 137.352 62.3146 137.352 61.9785H136.847V62.4826ZM156.31 62.4826V61.9785H156.057V62.4826H156.31ZM161.871 64.2466L162.124 62.9866C161.913 62.9866 161.492 62.6506 160.86 61.9785C160.86 62.1466 160.776 62.2306 160.607 62.2306C161.281 63.2386 161.618 63.9106 161.618 64.2466H161.871ZM163.388 62.2306V61.9785H162.882V62.2306H163.388ZM148.98 63.7426L148.727 62.4826C148.39 62.6506 148.137 62.7346 147.968 62.7346C147.968 63.1546 148.221 63.4906 148.727 63.7426H148.98ZM159.09 62.9866V62.4826H158.838V62.9866H159.09ZM166.674 62.9866V62.4826H166.421V62.9866H166.674ZM160.101 63.7426V63.2386H159.849V63.7426H160.101ZM135.33 63.9946V63.4906H135.077V63.9946H135.33ZM140.385 66.5147H139.88V63.4906H140.385C140.385 63.8266 140.47 63.9946 140.638 63.9946C140.47 64.8347 140.385 65.6747 140.385 66.5147ZM160.86 64.4987V63.9946H160.607V64.4987H160.86ZM167.685 64.2466V63.9946H167.179V64.2466H167.685ZM162.376 65.2547L162.882 65.0027C162.713 64.6667 162.629 64.4147 162.629 64.2466H162.124V65.2547H162.376ZM131.538 65.2547C131.875 65.2547 132.044 65.0867 132.044 64.7507H131.538V65.2547ZM131.033 66.0107V65.5067H130.78V66.0107H131.033ZM134.824 65.7587V65.5067H134.319V65.7587H134.824ZM151.002 66.5147C151.339 66.5147 151.507 66.3467 151.507 66.0107C151.507 65.6747 151.339 65.5067 151.002 65.5067V66.5147ZM162.629 66.2627C162.629 66.0947 162.713 65.8427 162.882 65.5067C162.376 65.5067 162.124 65.7587 162.124 66.2627H162.629ZM165.41 69.2869V69.0349C164.188 67.0188 163.43 65.9267 163.135 65.7587V66.0107C163.935 68.0268 164.525 69.0349 164.904 69.0349L165.41 69.2869ZM130.527 66.5147V66.0107H130.275V66.5147H130.527ZM168.948 66.7668V66.2627H168.696V66.7668H168.948ZM156.815 66.7668V66.5147H156.31V66.7668H156.815ZM166.674 67.0188C166.674 66.6828 166.505 66.5147 166.168 66.5147V67.0188H166.674ZM162.629 67.5228V66.7668H162.376V67.5228H162.629ZM160.101 68.0268V67.2708H159.849V68.0268H160.101ZM156.31 69.0349V68.5308H156.057V69.0349H156.31ZM163.135 69.5389C162.966 69.2449 162.882 68.9088 162.882 68.5308H162.629V69.5389H163.135ZM130.275 69.2869V68.7828C129.938 68.8248 129.769 68.9929 129.769 69.2869H130.275ZM164.146 69.5389V69.0349H163.893V69.5389H164.146ZM151.002 69.7909V69.2869H150.749V69.7909H151.002ZM170.971 70.2949V69.5389H170.465C170.634 69.8749 170.718 70.1269 170.718 70.2949H170.971ZM163.893 70.2949V69.7909H163.388V70.2949H163.893ZM128.758 70.2949V70.0429H128.252V70.2949H128.758ZM159.343 70.7989C159.175 70.4629 159.09 70.2109 159.09 70.0429C158.753 70.0849 158.585 70.2529 158.585 70.5469L159.09 70.7989H159.343ZM165.915 71.3029V71.0509C165.578 70.6309 165.41 70.2949 165.41 70.0429H165.157V70.2949C165.325 70.5889 165.41 70.9249 165.41 71.3029H165.915ZM163.135 72.059V70.5469L162.629 70.2949H162.376C162.713 70.6729 162.882 71.2609 162.882 72.059H163.135ZM128 71.555C128.337 71.555 128.505 71.3029 128.505 70.7989C128.168 70.8409 128 71.0929 128 71.555ZM131.286 71.0509V70.7989H130.78V71.0509H131.286ZM154.793 71.3029V70.7989H154.541V71.3029H154.793ZM130.275 71.807V71.3029H130.022V71.807H130.275ZM169.707 71.807V71.555H169.201V71.807H169.707ZM166.168 72.311V72.059H165.662V72.311H166.168ZM162.882 73.067C163.219 73.067 163.388 72.815 163.388 72.311C163.05 72.353 162.882 72.605 162.882 73.067ZM165.41 72.563V72.311H164.146V72.563H165.41ZM167.685 75.5871C168.022 75.5871 168.19 75.3351 168.19 74.8311C167.474 73.319 166.884 72.563 166.421 72.563V72.815C167.263 74.1171 167.685 75.0411 167.685 75.5871ZM129.769 74.0751C129.769 73.7391 129.6 73.571 129.263 73.571V74.0751H129.769ZM131.286 74.3271V74.0751H130.78V74.3271H131.286ZM156.563 75.3351V74.8311C156.563 74.4951 156.394 74.3271 156.057 74.3271L155.552 75.0831C155.889 75.2511 156.226 75.3351 156.563 75.3351ZM173.751 74.8311V74.3271H173.246C173.288 74.6631 173.456 74.8311 173.751 74.8311ZM130.527 75.3351V75.0831H130.022V75.3351H130.527ZM126.483 76.3432L126.23 75.8391L126.736 75.5871H126.989C126.989 76.0911 126.82 76.3432 126.483 76.3432ZM168.443 76.0911V75.8391H167.937V76.0911H168.443ZM158.838 77.0992V76.8472H158.332V77.0992H158.838ZM169.201 78.8633C169.538 78.8633 169.707 78.6953 169.707 78.3592L169.454 77.0992H169.201C169.201 77.2672 169.117 77.5192 168.948 77.8552C169.117 78.1492 169.201 78.4853 169.201 78.8633ZM163.388 78.1072V77.6032H163.135V78.1072H163.388ZM134.319 79.3673C134.656 79.1993 134.909 79.1153 135.077 79.1153V78.8633C134.909 78.8633 134.656 78.7793 134.319 78.6113V79.3673ZM135.836 79.1153V78.6113H135.583V79.1153H135.836ZM158.079 79.1153C158.416 79.1153 158.585 78.9473 158.585 78.6113C158.079 78.6113 157.827 78.7793 157.827 79.1153H158.079ZM170.718 81.1314C170.718 80.9634 170.802 80.7113 170.971 80.3753C170.465 79.6613 170.212 79.0733 170.212 78.6113H169.96C169.96 79.1153 170.128 79.7873 170.465 80.6273C170.297 80.6273 170.212 80.7113 170.212 80.8794L170.718 81.1314ZM138.363 79.3673V78.8633H138.11V79.3673H138.363ZM154.288 79.6193H154.035V79.1153H154.288V79.6193ZM126.989 81.3834H126.483V79.8713H126.989V81.3834ZM160.101 80.8794V80.3753C159.764 80.4173 159.596 80.5853 159.596 80.8794H160.101ZM134.572 81.6354V81.3834H134.066V81.6354H134.572ZM171.982 84.1555V83.9035L171.476 83.1475V82.3914C171.055 81.7194 170.718 81.3834 170.465 81.3834V81.8874C171.223 83.3995 171.729 84.1555 171.982 84.1555ZM126.989 82.1394H126.483V81.8874H126.989V82.1394ZM132.549 82.3914V82.1394H132.044V82.3914H132.549ZM136.088 83.1475C136.088 82.8114 135.92 82.6434 135.583 82.6434V83.1475H136.088ZM136.341 83.6515V83.3995H135.836V83.6515H136.341ZM136.594 84.4075V83.9035H136.341V84.4075H136.594ZM136.594 86.1716V85.9196C136.13 84.9115 135.793 84.4075 135.583 84.4075V84.9115C135.92 85.3316 136.088 85.7516 136.088 86.1716H136.594ZM173.498 87.6836C173.498 86.4236 173.246 85.7516 172.74 85.6676L172.993 87.6836H173.498ZM164.904 89.1957C164.904 89.0277 164.988 88.7757 165.157 88.4397L164.651 88.1877H164.399V88.4397C164.567 88.7757 164.651 89.0277 164.651 89.1957H164.904ZM135.583 88.6917V88.4397H135.077V88.6917H135.583ZM174.257 90.7078V89.9517C174.088 89.6157 174.004 89.3637 174.004 89.1957C174.172 89.1957 174.257 89.1117 174.257 88.9437C174.088 88.9437 173.835 88.8597 173.498 88.6917V89.6997C173.835 89.6997 174.004 90.0357 174.004 90.7078H174.257ZM170.718 89.6997V89.4477H170.212V89.6997H170.718ZM134.572 90.7078V90.2038H134.319V90.7078H134.572ZM164.904 92.2198V91.7158H164.651V92.2198H164.904ZM163.64 92.7239V92.4718H162.882V92.7239H163.64ZM167.937 94.2359V93.7319C167.6 93.7739 167.432 93.9419 167.432 94.2359H167.937Z" fill="#B0E31B"/>
<path d="M194.731 3.00804H192.962V2.50402H194.731V3.00804ZM229.361 96H215.206V95.496H195.489C189.297 95.496 185.168 93.3119 183.104 88.9437C181.924 87.3056 181.334 82.9374 181.334 75.8391C181.334 75.6711 181.418 75.5871 181.587 75.5871L181.334 73.8231V54.4182H182.093C182.093 55.0903 182.008 55.4263 181.84 55.4263C182.008 58.3664 182.093 60.2145 182.093 60.9705V74.0751H182.345V63.7426C182.682 61.2225 182.851 59.1224 182.851 57.4424C182.851 36.1895 182.935 19.8088 183.104 8.30027H183.356L183.104 7.79625V5.27614C183.146 4.94012 183.314 4.77212 183.609 4.77212H193.973C194.31 4.81412 194.478 4.98213 194.478 5.27614V24.933L193.973 26.6971C194.31 26.7391 194.478 26.9911 194.478 27.4531H193.72L193.973 27.9571L193.72 28.4611V28.7131H193.973V28.2091H194.478V53.9142H194.731C194.731 52.3601 194.815 51.1841 194.984 50.3861C194.815 49.336 194.731 48.118 194.731 46.7319C194.731 46.2699 194.815 45.8919 194.984 45.5979C194.815 45.2618 194.731 45.0098 194.731 44.8418H194.984L194.731 44.3378C194.731 42.1537 194.815 39.4656 194.984 36.2735L194.731 35.7694C194.9 35.4754 194.984 35.0974 194.984 34.6354C194.984 34.0474 194.9 33.7534 194.731 33.7534L194.984 32.4933V29.9732H195.742V33.2493H195.995V18.8847C196.037 18.5487 196.206 18.3807 196.5 18.3807C196.5 20.0608 196.585 21.4048 196.753 22.4129C196.753 22.5809 196.669 22.6649 196.5 22.6649C196.669 24.933 196.753 26.613 196.753 27.7051V80.1233H214.194C214.194 64.4147 214.279 53.6622 214.447 47.866C214.279 47.5719 214.194 47.2359 214.194 46.8579C214.363 46.1859 214.447 45.5139 214.447 44.8418C214.447 44.1698 214.363 43.8338 214.194 43.8338L214.447 41.3137V22.6649C214.447 22.2869 214.531 21.9508 214.7 21.6568C214.531 21.3628 214.447 21.0268 214.447 20.6488V3.00804C214.489 2.67203 214.658 2.50402 214.953 2.50402C219.798 2.50402 223.084 2.58803 224.811 2.75603C225.021 2.58803 225.611 2.50402 226.58 2.50402V2.75603C226.749 2.75603 226.833 2.67203 226.833 2.50402C229.024 2.63003 230.119 2.88204 230.119 3.26005C229.95 12.0804 229.866 18.1287 229.866 21.4048C229.866 21.9508 229.95 22.3709 230.119 22.6649L229.866 24.1769C230.035 53.4102 230.119 77.0992 230.119 95.244C230.119 95.496 229.866 95.748 229.361 96ZM190.687 6.03217V5.52815H190.434V6.03217H190.687ZM195.489 7.79625H194.984V5.52815H195.489V6.28418C195.489 6.45219 195.405 6.53619 195.237 6.53619L195.489 7.04021V7.79625ZM187.401 7.29222V7.04021H186.895V7.29222H187.401ZM190.181 9.0563C190.181 8.67828 190.265 8.34227 190.434 8.04826H190.181C190.013 8.38427 189.928 8.72029 189.928 9.0563H190.181ZM195.489 8.80429H194.984V8.30027H195.489V8.80429ZM190.181 10.3164V9.81233C189.844 9.85433 189.676 10.0223 189.676 10.3164H190.181ZM196.5 14.3485H195.995V10.5684H196.5V14.3485ZM189.676 12.3324L189.928 11.3244H189.423V12.3324H189.676ZM189.676 13.0885V12.5844H189.423V13.0885H189.676ZM196.5 15.6086H195.995V15.1046H196.5V15.6086ZM196.5 18.1287H196.248C196.079 17.2887 195.995 16.7846 195.995 16.6166H196.5V18.1287ZM187.401 22.4129V21.9088H187.148V22.4129H187.401ZM182.093 47.866H181.334V39.2976C181.334 38.7516 181.418 38.3315 181.587 38.0375L181.334 36.5255V25.185H182.093C181.924 27.1591 181.84 29.8472 181.84 33.2493C181.84 33.4173 181.756 33.5013 181.587 33.5013C181.756 33.8374 181.84 34.0894 181.84 34.2574C181.84 35.6854 181.924 37.1975 182.093 38.7936L181.84 41.0617C182.008 41.9437 182.093 42.7837 182.093 43.5818H181.84L182.093 44.0858C182.093 44.2538 182.008 44.5058 181.84 44.8418C182.008 45.9759 182.093 46.9839 182.093 47.866ZM187.654 26.6971V26.193H187.401V26.6971H187.654ZM193.72 30.2252V29.4692H193.467V30.2252H193.72ZM187.401 30.2252V29.9732H186.895V30.2252H187.401ZM193.467 30.9812V30.4772H193.214V30.9812H193.467ZM192.203 36.2735V35.7694H191.951V36.2735H192.203ZM192.203 37.0295V36.7775H191.698V37.0295H192.203ZM191.698 38.0375C192.035 38.0375 192.203 37.8695 192.203 37.5335L191.698 37.2815V38.0375ZM191.445 40.3056V39.8016H191.192V40.3056H191.445ZM190.687 41.8177C191.024 41.8177 191.192 41.3977 191.192 40.5576H190.94L190.687 41.8177ZM182.093 52.9062H181.334V48.874H182.093V52.9062ZM190.94 94.4879V94.2359H190.434V94.4879H190.94ZM196.248 94.992V94.4879H195.742C195.784 94.824 195.953 94.992 196.248 94.992ZM201.556 94.992V94.7399H197.006V94.992H201.556Z" fill="#B0E31B"/>
<path d="M271.573 96H265.001C263.906 96 262.811 95.916 261.715 95.748C261.126 95.916 259.103 96 255.649 96C255.48 96 255.396 95.916 255.396 95.748C255.228 95.748 255.143 95.832 255.143 96C251.773 95.832 245.707 95.748 236.944 95.748C236.607 95.748 236.438 95.496 236.438 94.992C236.438 91.9258 236.523 87.6416 236.691 82.1394C236.523 81.4674 236.438 80.8794 236.438 80.3753L236.944 80.1233H249.077C249.245 80.1233 249.33 80.2073 249.33 80.3753L249.835 80.1233C251.52 80.1233 252.363 80.2073 252.363 80.3753L253.627 80.1233C255.649 80.1233 256.66 80.2073 256.66 80.3753L257.165 80.1233H261.715L262.221 80.3753L261.968 80.8794V81.1314L262.979 80.1233H270.057V72.059L268.54 70.2949C268.54 70.1269 268.624 70.0429 268.793 70.0429C267.15 67.9008 261.336 61.0965 251.352 49.63C251.352 49.126 251.015 48.874 250.341 48.874V48.37C251.141 48.538 253.163 50.6381 256.407 54.6702H256.66V54.4182L248.824 44.3378C247.097 42.7417 245.833 41.2297 245.032 39.8016C244.401 39.8016 243.389 38.5416 241.999 36.0214C241.831 36.0214 240.735 34.7614 238.713 32.2413V16.6166C238.713 13.5085 239.64 10.4844 241.494 7.54424V6.7882C239.303 10.1903 238.208 13.2985 238.208 16.1126V17.1206H237.449V15.8606H237.197C237.197 19.5987 237.112 21.6148 236.944 21.9088C237.112 22.2029 237.197 22.7069 237.197 23.4209H236.438C236.438 23.0849 236.523 22.9169 236.691 22.9169L236.438 21.1528V15.1046C236.438 9.60232 239.134 5.57015 244.527 3.00804C245.707 2.50402 247.223 2.16801 249.077 2V2.25201L249.582 2H249.835L250.593 2.50402C250.593 2.16801 250.846 2 251.352 2C251.52 2 251.605 2.084 251.605 2.25201L253.121 2C255.902 2 259.019 2.084 262.474 2.25201C263.78 2.084 265.212 2 266.771 2C266.813 2.33601 266.981 2.50402 267.276 2.50402L267.529 2L268.793 2.25201H277.387C277.556 2.25201 277.64 2.33601 277.64 2.50402L278.145 2.25201C278.482 2.25201 278.651 2.33601 278.651 2.50402L281.684 2.25201H285.223C285.56 2.29401 285.729 2.46202 285.729 2.75603V7.79625C285.729 7.96425 285.644 8.04826 285.476 8.04826L285.729 8.55228C285.56 11.7444 285.476 13.9285 285.476 15.1046L285.729 17.6247L285.223 17.8767H274.354V17.3727H274.101L273.343 17.8767H272.079C271.91 17.8767 271.826 17.7927 271.826 17.6247L271.321 17.8767C267.276 17.8767 265.254 17.7927 265.254 17.6247L263.99 17.8767H252.11V25.941C252.11 26.151 252.7 26.8231 253.879 27.9571V28.2091L253.374 27.9571C255.396 30.6452 261.041 37.1975 270.31 47.6139C270.647 48.622 271.152 49.126 271.826 49.126V49.63H271.321L265.507 43.3298L265.254 43.8338V44.0858L265.76 43.8338L273.596 53.9142C275.154 55.3843 276.334 56.8123 277.134 58.1984C277.851 58.1984 278.862 59.4584 280.168 61.9785C280.336 61.9785 281.431 63.2386 283.454 65.7587V82.1394C283.454 85.2055 282.443 87.9777 280.42 90.4558C281.6 90.4558 282.78 88.1037 283.959 83.3995V81.1314H284.717V82.1394H284.97V74.5791H285.729C285.729 75.0831 285.644 75.3351 285.476 75.3351L285.729 75.8391V80.8794C285.729 81.2574 285.813 81.5934 285.981 81.8874C285.981 88.5657 282.78 93.1019 276.376 95.496C275.028 95.832 273.427 96 271.573 96ZM251.605 4.2681C251.942 4.2681 252.11 4.10009 252.11 3.76408L251.605 3.51206V4.2681ZM268.793 6.03217C268.793 4.77212 268.54 4.10009 268.035 4.01609L268.287 6.03217H268.793ZM249.077 5.02413V4.52011H248.824V5.02413H249.077ZM249.835 5.78016V5.52815H249.33V5.78016H249.835ZM250.593 6.03217V5.52815H250.088C250.13 5.86416 250.299 6.03217 250.593 6.03217ZM242.252 6.28418V5.78016H241.999V6.28418H242.252ZM260.199 7.54424C260.199 7.37623 260.283 7.12422 260.451 6.7882L259.946 6.53619H259.693V6.7882C259.862 7.12422 259.946 7.37623 259.946 7.54424H260.199ZM281.179 6.7882V6.53619H280.673V6.7882H281.179ZM269.298 8.04826C269.298 7.88025 269.383 7.62824 269.551 7.29222C269.383 7.29222 269.13 7.20822 268.793 7.04021V8.04826H269.298ZM239.977 8.30027L240.483 7.54424H239.977C239.977 7.71224 239.893 7.96425 239.724 8.30027H239.977ZM266.012 8.04826V7.79625H265.507V8.04826H266.012ZM253.121 8.30027V8.04826H252.616V8.30027H253.121ZM270.31 9.81233C270.31 9.47632 270.141 9.30831 269.804 9.30831V9.81233H270.31ZM260.199 10.5684V10.0643H259.946V10.5684H260.199ZM258.935 11.0724V10.8204H258.177V11.0724H258.935ZM271.573 11.5764V11.3244C271.236 11.3244 271.068 11.1564 271.068 10.8204C270.731 10.8624 270.562 11.0304 270.562 11.3244C270.731 11.3244 270.984 11.4084 271.321 11.5764H271.573ZM271.321 12.5844C271.658 12.5844 271.826 12.3324 271.826 11.8284C271.489 11.8704 271.321 12.1224 271.321 12.5844ZM263.232 12.5844V12.0804C262.895 12.1224 262.726 12.2904 262.726 12.5844H263.232ZM254.891 13.0885V12.5844H254.385V13.0885H254.891ZM254.132 13.3405V12.8365C253.627 12.8365 253.374 13.0045 253.374 13.3405H254.132ZM246.549 13.5925C246.886 13.5925 247.055 13.4245 247.055 13.0885H246.549V13.5925ZM269.804 14.3485V13.8445H269.298V14.3485H269.804ZM272.837 15.1046V14.6005C272.669 14.2645 272.584 14.0125 272.584 13.8445C272.247 13.8865 272.079 14.0545 272.079 14.3485C272.416 14.3485 272.584 14.6005 272.584 15.1046H272.837ZM249.835 15.1046V14.8525H249.077V15.1046H249.835ZM272.584 15.8606C272.922 15.6926 273.174 15.6086 273.343 15.6086V15.3566H272.584V15.8606ZM241.241 17.1206V16.8686C241.072 16.5746 240.988 16.1546 240.988 15.6086H240.735V16.6166C240.904 16.6166 240.988 16.7846 240.988 17.1206H241.241ZM245.285 16.6166V16.1126H245.032V16.6166H245.285ZM273.596 17.1206V16.1126C273.259 16.1546 273.09 16.3226 273.09 16.6166C273.132 16.9526 273.301 17.1206 273.596 17.1206ZM243.769 17.1206V16.8686H243.263V17.1206H243.769ZM241.746 19.1367V18.8847H241.241V19.1367H241.746ZM249.582 21.1528C249.414 20.1448 249.077 19.6408 248.571 19.6408C248.571 19.8088 248.487 20.0608 248.318 20.3968L249.33 21.1528H249.582ZM245.285 20.6488V19.8928H244.78C244.78 20.3968 244.948 20.6488 245.285 20.6488ZM241.494 20.6488V20.1448C241.157 20.1868 240.988 20.3548 240.988 20.6488H241.494ZM240.735 21.4048V21.1528H240.23V21.4048H240.735ZM240.483 22.4129C240.82 22.4129 240.988 22.1609 240.988 21.6568H240.483V22.4129ZM245.285 23.1689V22.6649H245.032V23.1689H245.285ZM237.197 25.185H236.691V24.681H237.197V25.185ZM238.208 27.4531H237.702V26.9491H238.208V27.4531ZM248.318 31.9893V31.4853H248.066V31.9893H248.318ZM255.902 31.9893V31.7373L255.396 31.4853V31.7373L255.902 31.9893ZM257.418 34.0054V33.5013L256.407 32.7453V32.9973C256.913 32.9973 257.165 33.3333 257.165 34.0054H257.418ZM243.769 40.3056H243.263C242.926 40.3056 242.758 40.0536 242.758 39.5496H243.263C243.6 39.5916 243.769 39.8436 243.769 40.3056ZM245.285 42.3217C244.864 42.3217 244.443 41.9857 244.021 41.3137V40.8097C244.401 40.8097 244.822 41.2297 245.285 42.0697V42.3217ZM247.055 44.0858C246.633 43.7498 246.212 43.5818 245.791 43.5818V42.8257C246.212 42.8257 246.633 43.1618 247.055 43.8338V44.0858ZM248.318 45.5979C247.897 45.2618 247.56 45.0938 247.307 45.0938V44.8418H248.066L248.318 45.3458V45.5979ZM250.341 47.866C249.793 47.3619 249.287 47.1099 248.824 47.1099V46.6059C249.835 46.9419 250.341 47.3619 250.341 47.866ZM273.343 51.3941H272.837C272.584 51.3941 272.247 51.0581 271.826 50.3861V50.134C272.374 50.6381 272.879 50.8901 273.343 50.8901V51.3941ZM274.859 53.1582H274.101L273.848 52.6542V52.4021C274.27 52.7382 274.607 52.9062 274.859 52.9062V53.1582ZM276.376 55.1743C275.955 55.1743 275.533 54.8382 275.112 54.1662V53.9142C275.533 54.2502 275.955 54.4182 276.376 54.4182V55.1743ZM278.145 57.1903C277.766 57.1903 277.345 56.7703 276.882 55.9303V55.6783C277.303 55.6783 277.724 56.0143 278.145 56.6863V57.1903ZM267.529 56.9383V56.4343H267.276V56.9383H267.529ZM267.024 58.4504V57.9464H266.771V58.4504H267.024ZM279.157 58.4504H278.651V57.9464H279.157V58.4504ZM271.573 59.7105C271.573 59.3324 271.658 58.9964 271.826 58.7024H271.321V59.7105H271.573ZM271.573 61.9785V60.9705C271.236 61.0125 271.068 61.1805 271.068 61.4745C271.11 61.8105 271.279 61.9785 271.573 61.9785ZM265.76 65.2547C265.254 64.7087 265.001 64.2887 265.001 63.9946H264.749V64.4987C265.086 64.4987 265.254 64.7507 265.254 65.2547H265.76ZM271.068 67.5228V66.7668H270.815V67.5228H271.068ZM285.729 69.7909H285.223V69.0349H285.729V69.7909ZM284.717 70.7989H284.212V70.5469H284.717V70.7989ZM285.729 74.0751H284.97V72.815H285.476L285.729 74.0751ZM276.376 83.9035V83.6515H275.87V83.9035H276.376Z" fill="#B0E31B"/>
</g>
</svg>
