<svg width="180" height="30" viewBox="0 0 180 30" fill="none" xmlns="http://www.w3.org/2000/svg">
<g clip-path="url(#clip0_0_1114)">
<path fill-rule="evenodd" clip-rule="evenodd" d="M20.3528 14.1048C20.3444 11.9975 20.3045 9.87726 20.4277 7.77827C20.5111 6.34666 21.2383 2.71921 21.0679 1.77426C19.1183 -0.583409 5.33794 -0.598765 3.38467 1.77426C3.21556 2.70976 3.94033 6.34784 4.02489 7.77473C4.14931 9.87017 4.10945 11.9975 4.09978 14.1059C1.72132 13.774 0.229492 13.7091 0.229492 14.9174C0.229492 17.2113 5.49497 20.1962 12.117 20.1962C18.7402 20.1962 24.2135 17.2113 24.2135 14.9174C24.2135 13.7102 22.7265 13.774 20.3528 14.1048ZM18.8586 14.5323C18.8658 14.5453 18.8707 14.5583 18.8707 14.5713C18.8707 14.9387 16.0018 15.7821 12.3344 15.7821C8.66586 15.7821 5.58799 14.9387 5.58799 14.5713C5.58799 14.5583 5.59282 14.5453 5.60007 14.5323C5.80904 14.9174 8.79632 15.7017 12.3344 15.7017C15.8689 15.7017 18.6617 14.9186 18.8586 14.5323ZM18.472 1.51203L17.9043 13.7197L19.2198 13.7634C19.2125 13.7634 19.7017 3.13617 20.2743 2.01876C19.3865 1.64314 20.0134 1.87111 18.4563 1.36084L18.4576 1.36793C17.7968 1.2002 16.9355 1.05963 15.8278 0.904897C15.8351 0.932064 15.8375 0.959232 15.8363 0.986399C16.9222 1.13877 17.8065 1.28288 18.466 1.45061L18.472 1.51203ZM7.22718 2.6448C7.26101 4.68945 7.37697 11.362 7.43495 13.1196C9.11763 13.0499 9.59599 13.0476 9.59599 13.0476L9.30366 1.32658C7.58595 1.19665 6.57972 1.44825 4.91032 1.90773C4.92723 1.92899 4.94052 1.9538 4.95019 1.97978C5.81387 1.74236 6.58213 1.57463 7.20423 1.47069C7.22718 2.6448 7.20423 1.47069 7.22718 2.6448Z" fill="#FEFEFE"/>
<path fill-rule="evenodd" clip-rule="evenodd" d="M6.71989 29.9422C9.68059 30.2812 11.0009 29.0917 12.3212 27.9837C13.6403 29.0917 14.9618 30.2812 17.9213 29.9422C26.7357 28.8625 24.2667 21.4139 21.7203 21.6218C21.2576 21.7588 21.457 22.451 21.5765 22.6743C22.044 21.9667 22.2433 22.1238 22.346 22.3801C24.4261 28.4432 17.3547 24.1437 15.2432 23.1172C13.7985 22.4144 13.534 22.5089 12.3212 23.3357C11.1072 22.5089 10.8426 22.4144 9.39793 23.1172C7.28763 24.1437 0.216248 28.4432 2.29514 22.3801C2.39782 22.1238 2.59713 21.9667 3.06461 22.6743C3.1842 22.451 3.38351 21.7588 2.92207 21.6218C0.37449 21.4139 -2.09336 28.8625 6.71989 29.9422Z" fill="#FEFEFE"/>
<path d="M57.9674 7.95063V0.655563H34.1176V29.3456H44.0095V20.1642H56.2485V12.8691H44.0095V7.95063H57.9674ZM79.1755 21.4765C77.9603 21.9679 76.7874 22.1734 75.571 22.1734C71.3383 22.1734 68.5721 19.3043 68.5721 15C68.5721 10.5741 71.3383 7.82778 75.6966 7.82778C78.2961 7.82778 80.433 8.89322 82.2776 10.9839L88.6073 5.53272C85.6309 1.96669 80.979 0 75.1941 0C65.5123 0 58.5956 6.18828 58.5956 15C58.5956 23.8129 65.5123 30.0012 74.9851 30.0012C79.3024 30.0012 84.2055 28.7314 87.7689 26.3537V14.2216H79.1755V21.4765ZM114.721 7.95063V0.655563H90.871V29.3456H100.763V20.1642H113.002V12.8691H100.763V7.95063H114.721ZM131.905 30.0012C141.463 30.0012 148.461 23.6901 148.461 15C148.461 6.31113 141.463 0 131.905 0C122.349 0 115.349 6.31113 115.349 15C115.349 23.6901 122.349 30.0012 131.905 30.0012ZM131.905 22.1734C128.26 22.1734 125.325 19.4685 125.325 15C125.325 10.5327 128.26 7.82778 131.905 7.82778C135.552 7.82778 138.486 10.5327 138.486 15C138.486 19.4685 135.552 22.1734 131.905 22.1734ZM179.772 29.3456L168.958 14.5086L179.144 0.655563H168.497L163.635 7.86912L158.647 0.655563H147.54L157.766 14.8772L147.162 29.3456H158.437L163.383 21.6808L168.454 29.3456H179.772Z" fill="#FEFEFE"/>
</g>
<defs>
<clipPath id="clip0_0_1114">
<rect width="180" height="30" fill="white"/>
</clipPath>
</defs>
</svg>
