<svg width="52" height="58" viewBox="0 0 52 58" fill="none" xmlns="http://www.w3.org/2000/svg">
<path d="M0.419983 15.0789V12.1254C0.419983 10.003 0.879655 8.07236 1.799 6.33352C2.71834 4.59469 4.09736 3.20106 5.93604 2.15264C7.77473 1.10423 10.0603 0.580017 12.7928 0.580017C15.6019 0.580017 17.9258 1.10423 19.7645 2.15264C21.6032 3.20106 22.9694 4.59469 23.8632 6.33352C24.7826 8.07236 25.2423 10.003 25.2423 12.1254V15.0789C25.2423 17.1501 24.7826 19.0552 23.8632 20.794C22.9694 22.5328 21.6032 23.9265 19.7645 24.9749C17.9513 26.0233 15.6658 26.5475 12.9077 26.5475C10.1242 26.5475 7.81304 26.0233 5.97435 24.9749C4.13566 23.9265 2.74388 22.5328 1.799 20.794C0.879655 19.0552 0.419983 17.1501 0.419983 15.0789ZM8.69407 12.1254V15.0789C8.69407 15.846 8.8473 16.5748 9.15374 17.2652C9.46019 17.9556 9.91986 18.5182 10.5328 18.9529C11.1712 19.362 11.9501 19.5666 12.8694 19.5666C13.8143 19.5666 14.5804 19.362 15.1678 18.9529C15.7551 18.5182 16.1893 17.9556 16.4702 17.2652C16.7766 16.5748 16.9299 15.846 16.9299 15.0789V12.1254C16.9299 11.3071 16.7766 10.5528 16.4702 9.86234C16.1893 9.17192 15.7424 8.62214 15.1295 8.213C14.5166 7.77829 13.7377 7.56094 12.7928 7.56094C11.899 7.56094 11.1457 7.77829 10.5328 8.213C9.91986 8.62214 9.46019 9.17192 9.15374 9.86234C8.8473 10.5528 8.69407 11.3071 8.69407 12.1254ZM26.8894 46.493V43.5395C26.8894 41.4427 27.3491 39.5249 28.2684 37.786C29.2133 36.0472 30.6051 34.6536 32.4438 33.6051C34.308 32.5567 36.6064 32.0325 39.3389 32.0325C42.148 32.0325 44.4591 32.5567 46.2722 33.6051C48.1109 34.6536 49.4772 36.0472 50.371 37.786C51.2903 39.5249 51.75 41.4427 51.75 43.5395V46.493C51.75 48.5898 51.2903 50.5077 50.371 52.2465C49.4772 53.9853 48.1237 55.379 46.3105 56.4274C44.4974 57.4758 42.2118 58 39.4538 58C36.6702 58 34.3463 57.4758 32.4821 56.4274C30.6179 55.379 29.2133 53.9853 28.2684 52.2465C27.3491 50.5077 26.8894 48.5898 26.8894 46.493ZM35.2018 43.5395V46.493C35.2018 47.2857 35.3933 48.0273 35.7764 48.7177C36.1595 49.4081 36.6702 49.9707 37.3086 50.4054C37.9471 50.8145 38.6493 51.0191 39.4155 51.0191C40.5902 51.0191 41.4584 50.8145 42.0203 50.4054C42.6076 49.9707 42.9907 49.4081 43.1694 48.7177C43.3737 48.0273 43.4759 47.2857 43.4759 46.493V43.5395C43.4759 42.7468 43.3227 42.0053 43.0162 41.3148C42.7098 40.6244 42.2501 40.0746 41.6372 39.6655C41.0243 39.2308 40.2582 39.0134 39.3389 39.0134C38.4195 39.0134 37.6534 39.2308 37.0405 39.6655C36.4276 40.0746 35.9679 40.6244 35.6615 41.3148C35.355 42.0053 35.2018 42.7468 35.2018 43.5395ZM42.5566 9.40206L15.321 53.052L9.30697 50.0218L36.5425 6.37188L42.5566 9.40206Z" fill="#C4EE4A" fill-opacity="0.8"/>
</svg>
